<svg width="28" height="28" viewBox="0 0 28 28" fill="none" xmlns="http://www.w3.org/2000/svg">
<path d="M14 28C21.732 28 28 21.732 28 14C28 6.26801 21.732 0 14 0C6.26801 0 0 6.26801 0 14C0 21.732 6.26801 28 14 28Z" fill="url(#paint0_linear_1955)"/>
<path d="M14 28C21.732 28 28 21.732 28 14C28 6.26801 21.732 0 14 0C6.26801 0 0 6.26801 0 14C0 21.732 6.26801 28 14 28Z" fill="url(#paint1_radial_1955)"/>
<path d="M7.30469 7.30566C7.1875 11.7688 7.1875 16.232 7.30469 20.6951C11.7678 20.8123 16.231 20.8123 20.6941 20.6951C16.3482 16.3492 11.6507 11.6516 7.30469 7.30566Z" fill="url(#paint2_linear_1955)"/>
<path d="M7.30459 7.30566C7.12401 14.6137 13.386 20.8757 20.694 20.6951C20.6938 20.6951 20.7886 17.3478 20.7804 14.0005C20.7886 10.6531 20.6938 7.30583 20.694 7.30572C16.2309 7.18847 11.7677 7.18847 7.30459 7.30566Z" fill="url(#paint3_linear_1955)"/>
<path d="M14.001 23.4678C19.2299 23.4678 23.4688 19.2289 23.4688 14C23.4688 8.77109 19.2299 4.53223 14.001 4.53223C8.77207 4.53223 4.5332 8.77109 4.5332 14C4.5332 19.2289 8.77207 23.4678 14.001 23.4678Z" fill="url(#paint4_linear_1955)"/>
<path d="M14.001 23.4678C19.2299 23.4678 23.4688 19.2289 23.4688 14C23.4688 8.77109 19.2299 4.53223 14.001 4.53223C8.77207 4.53223 4.5332 8.77109 4.5332 14C4.5332 19.2289 8.77207 23.4678 14.001 23.4678Z" fill="url(#paint5_linear_1955)"/>
<path d="M14.001 23.4678C19.2299 23.4678 23.4688 19.2289 23.4688 14C23.4688 8.77109 19.2299 4.53223 14.001 4.53223C8.77207 4.53223 4.5332 8.77109 4.5332 14C4.5332 19.2289 8.77207 23.4678 14.001 23.4678Z" fill="url(#paint6_linear_1955)"/>
<path d="M14.001 23.4678C19.2299 23.4678 23.4688 19.2289 23.4688 14C23.4688 8.77109 19.2299 4.53223 14.001 4.53223C8.77207 4.53223 4.5332 8.77109 4.5332 14C4.5332 19.2289 8.77207 23.4678 14.001 23.4678Z" fill="url(#paint7_linear_1955)"/>
<path d="M14.001 23.4678C19.2299 23.4678 23.4688 19.2289 23.4688 14C23.4688 8.77109 19.2299 4.53223 14.001 4.53223C8.77207 4.53223 4.5332 8.77109 4.5332 14C4.5332 19.2289 8.77207 23.4678 14.001 23.4678Z" fill="url(#paint8_radial_1955)"/>
<path d="M21.8477 4.8641C21.0273 4.82866 20.207 4.79875 19.3867 4.77441C19.8384 6.20963 20.29 7.64059 20.7349 9.06536C20.7985 12.3548 20.7985 15.6443 20.7349 18.9338C20.29 20.3585 19.8384 21.7895 19.3867 23.2247C20.207 23.2004 21.0273 23.1705 21.8477 23.135C22.5263 23.1049 23.1054 22.5259 23.1355 21.8472C23.3616 16.6154 23.3616 11.3837 23.1355 6.15188C23.1054 5.47327 22.5263 4.89434 21.8477 4.8641Z" fill="url(#paint9_linear_1955)"/>
<path d="M20.6594 6.05984C20.6372 5.37302 20.0658 4.79503 19.3871 4.77424C14.9756 4.64338 10.5642 4.67324 6.15275 4.86393C5.47408 4.89401 4.89504 5.47321 4.86491 6.15177C4.63878 11.3836 4.63878 16.6153 4.86491 21.8471C4.89504 22.5256 5.47408 23.1047 6.15275 23.1349C10.5642 23.3256 14.9756 23.3555 19.3871 23.2246C20.0658 23.2039 20.6372 22.6258 20.6594 21.9391C20.6905 20.9372 20.7159 19.9354 20.7352 18.9336C19.1125 17.3207 17.4504 15.6642 15.784 13.9994C17.4504 12.3346 19.1125 10.6781 20.7352 9.06524C20.7159 8.06348 20.6906 7.0616 20.6594 6.05984ZM7.26553 9.06524C8.88827 10.6781 10.5504 12.3346 12.2167 13.9994C10.5504 15.6642 8.88827 17.3207 7.26553 18.9336C7.20187 15.6442 7.20187 12.3547 7.26553 9.06524ZM18.9346 20.7343C15.6451 20.798 12.3557 20.798 9.06628 20.7343C10.6792 19.1116 12.3356 17.4494 14.0005 15.7831C15.6653 17.4494 17.3217 19.1116 18.9346 20.7343ZM14.0004 12.2157C12.3356 10.5494 10.6791 8.88729 9.06622 7.26455C12.3557 7.20089 15.6451 7.20089 18.9345 7.26455C17.3217 8.88729 15.6653 10.5494 14.0004 12.2157Z" fill="url(#paint10_linear_1955)"/>
<defs>
<linearGradient id="paint0_linear_1955" x1="4.10052" y1="23.8995" x2="23.8995" y2="4.10052" gradientUnits="userSpaceOnUse">
<stop stop-color="#FF2F2B"/>
<stop offset="1" stop-color="#FF9CEB"/>
</linearGradient>
<radialGradient id="paint1_radial_1955" cx="0" cy="0" r="1" gradientUnits="userSpaceOnUse" gradientTransform="translate(14 14) scale(14.1422)">
<stop stop-color="#FF2F2B"/>
<stop offset="0.8734" stop-color="#FF8ED2" stop-opacity="0.127"/>
<stop offset="1" stop-color="#FF9CEB" stop-opacity="0"/>
</radialGradient>
<linearGradient id="paint2_linear_1955" x1="7.36983" y1="20.63" x2="20.8576" y2="7.14226" gradientUnits="userSpaceOnUse">
<stop stop-color="#FF2F2B"/>
<stop offset="1" stop-color="#FF9CEB"/>
</linearGradient>
<linearGradient id="paint3_linear_1955" x1="4.20403" y1="23.7956" x2="20.4027" y2="7.59698" gradientUnits="userSpaceOnUse">
<stop stop-color="#FF2F2B"/>
<stop offset="1" stop-color="#FF9CEB"/>
</linearGradient>
<linearGradient id="paint4_linear_1955" x1="6.68784" y1="14" x2="21.51" y2="14" gradientUnits="userSpaceOnUse">
<stop stop-color="#FF2F2B"/>
<stop offset="0.0413" stop-color="#FF4450" stop-opacity="0.959"/>
<stop offset="0.0913" stop-color="#FF5874" stop-opacity="0.909"/>
<stop offset="0.1474" stop-color="#FF6B94" stop-opacity="0.853"/>
<stop offset="0.2096" stop-color="#FF7AB0" stop-opacity="0.79"/>
<stop offset="0.2799" stop-color="#FF87C6" stop-opacity="0.72"/>
<stop offset="0.3618" stop-color="#FF90D7" stop-opacity="0.638"/>
<stop offset="0.4632" stop-color="#FF97E2" stop-opacity="0.537"/>
<stop offset="0.6054" stop-color="#FF9BE9" stop-opacity="0.395"/>
<stop offset="1" stop-color="#FF9CEB" stop-opacity="0"/>
</linearGradient>
<linearGradient id="paint5_linear_1955" x1="14.001" y1="21.3131" x2="14.001" y2="6.49102" gradientUnits="userSpaceOnUse">
<stop stop-color="#FF2F2B"/>
<stop offset="0.0413" stop-color="#FF4450" stop-opacity="0.959"/>
<stop offset="0.0913" stop-color="#FF5874" stop-opacity="0.909"/>
<stop offset="0.1474" stop-color="#FF6B94" stop-opacity="0.853"/>
<stop offset="0.2096" stop-color="#FF7AB0" stop-opacity="0.79"/>
<stop offset="0.2799" stop-color="#FF87C6" stop-opacity="0.72"/>
<stop offset="0.3618" stop-color="#FF90D7" stop-opacity="0.638"/>
<stop offset="0.4632" stop-color="#FF97E2" stop-opacity="0.537"/>
<stop offset="0.6054" stop-color="#FF9BE9" stop-opacity="0.395"/>
<stop offset="1" stop-color="#FF9CEB" stop-opacity="0"/>
</linearGradient>
<linearGradient id="paint6_linear_1955" x1="14.001" y1="5.81525" x2="14.001" y2="21.5803" gradientUnits="userSpaceOnUse">
<stop stop-color="#FF2F2B"/>
<stop offset="0.0413" stop-color="#FF4450" stop-opacity="0.959"/>
<stop offset="0.0913" stop-color="#FF5874" stop-opacity="0.909"/>
<stop offset="0.1474" stop-color="#FF6B94" stop-opacity="0.853"/>
<stop offset="0.2096" stop-color="#FF7AB0" stop-opacity="0.79"/>
<stop offset="0.2799" stop-color="#FF87C6" stop-opacity="0.72"/>
<stop offset="0.3618" stop-color="#FF90D7" stop-opacity="0.638"/>
<stop offset="0.4632" stop-color="#FF97E2" stop-opacity="0.537"/>
<stop offset="0.6054" stop-color="#FF9BE9" stop-opacity="0.395"/>
<stop offset="1" stop-color="#FF9CEB" stop-opacity="0"/>
</linearGradient>
<linearGradient id="paint7_linear_1955" x1="22.6784" y1="14" x2="6.76806" y2="14" gradientUnits="userSpaceOnUse">
<stop stop-color="#FF2F2B"/>
<stop offset="0.0413" stop-color="#FF4450" stop-opacity="0.959"/>
<stop offset="0.0913" stop-color="#FF5874" stop-opacity="0.909"/>
<stop offset="0.1474" stop-color="#FF6B94" stop-opacity="0.853"/>
<stop offset="0.2096" stop-color="#FF7AB0" stop-opacity="0.79"/>
<stop offset="0.2799" stop-color="#FF87C6" stop-opacity="0.72"/>
<stop offset="0.3618" stop-color="#FF90D7" stop-opacity="0.638"/>
<stop offset="0.4632" stop-color="#FF97E2" stop-opacity="0.537"/>
<stop offset="0.6054" stop-color="#FF9BE9" stop-opacity="0.395"/>
<stop offset="1" stop-color="#FF9CEB" stop-opacity="0"/>
</linearGradient>
<radialGradient id="paint8_radial_1955" cx="0" cy="0" r="1" gradientUnits="userSpaceOnUse" gradientTransform="translate(14.001 14) rotate(180) scale(12.2271)">
<stop stop-color="#FF2F2B" stop-opacity="0.7"/>
<stop offset="0.076" stop-color="#FF4450" stop-opacity="0.647"/>
<stop offset="0.177" stop-color="#FF5B79" stop-opacity="0.576"/>
<stop offset="0.284" stop-color="#FF6F9C" stop-opacity="0.501"/>
<stop offset="0.3964" stop-color="#FF7FB9" stop-opacity="0.423"/>
<stop offset="0.5159" stop-color="#FF8CCF" stop-opacity="0.339"/>
<stop offset="0.6459" stop-color="#FF95DF" stop-opacity="0.248"/>
<stop offset="0.7939" stop-color="#FF9AE8" stop-opacity="0.144"/>
<stop offset="1" stop-color="#FF9CEB" stop-opacity="0"/>
</radialGradient>
<linearGradient id="paint9_linear_1955" x1="3.04822" y1="31.7669" x2="23.6514" y2="11.1637" gradientUnits="userSpaceOnUse">
<stop stop-color="#FFD6EF"/>
<stop offset="1" stop-color="white"/>
</linearGradient>
<linearGradient id="paint10_linear_1955" x1="0.0533413" y1="26.7624" x2="27.3514" y2="-0.535693" gradientUnits="userSpaceOnUse">
<stop stop-color="#FFD6EF"/>
<stop offset="1" stop-color="white"/>
</linearGradient>
</defs>
</svg>
