<svg width="28" height="28" viewBox="0 0 28 28" fill="none" xmlns="http://www.w3.org/2000/svg">
<path d="M14 0C6.28265 0 0 6.28265 0 14C0 21.7174 6.28265 28 14 28C21.7174 28 28 21.7174 28 14C28 6.28265 21.7174 0 14 0ZM14 25.1017C7.87934 25.1017 2.89835 20.1207 2.89835 14C2.89835 7.87934 7.87934 2.89835 14 2.89835C20.1207 2.89835 25.1017 7.87934 25.1017 14C25.1017 20.1207 20.1207 25.1017 14 25.1017Z" fill="url(#paint0_linear_1955)"/>
<path d="M16.3887 13.213C15.7119 12.837 14.9945 12.5593 14.2829 12.2643C13.8722 12.0965 13.4788 11.894 13.1317 11.6163C12.449 11.0667 12.5763 10.1816 13.3805 9.82873C13.6061 9.73038 13.8433 9.69567 14.0862 9.6841C15.0176 9.63204 15.897 9.80559 16.7416 10.2105C17.1581 10.413 17.297 10.3494 17.4416 9.91551C17.592 9.4527 17.7193 8.9841 17.8524 8.52129C17.9449 8.2089 17.8292 8.00063 17.5342 7.87336C16.9962 7.63617 16.4408 7.46261 15.8565 7.37584C15.0986 7.25435 15.0986 7.25435 15.0928 6.49071C15.0871 5.4089 15.0871 5.4089 14.011 5.41468C13.8548 5.41468 13.6986 5.4089 13.5424 5.41468C13.0391 5.43204 12.9524 5.51881 12.9408 6.02212C12.935 6.24774 12.9408 6.47914 12.9408 6.70476C12.935 7.38162 12.935 7.37005 12.2871 7.60146C10.7251 8.1684 9.75896 9.23286 9.65483 10.9395C9.56227 12.4494 10.349 13.4676 11.5871 14.2081C12.3507 14.6651 13.1953 14.937 14.0052 15.2957C14.3234 15.4345 14.6243 15.5965 14.8846 15.8163C15.6656 16.4585 15.5209 17.5287 14.5953 17.9337C14.0978 18.1477 13.5771 18.2056 13.0449 18.1362C12.2176 18.032 11.4251 17.818 10.6846 17.4304C10.2507 17.2048 10.1234 17.2626 9.97301 17.737C9.84574 18.1477 9.73004 18.5585 9.62012 18.9692C9.46971 19.5246 9.52177 19.6577 10.054 19.9122C10.7251 20.2362 11.4482 20.4039 12.1829 20.5254C12.7557 20.618 12.7788 20.6411 12.7846 21.237C12.7846 21.5089 12.7904 21.7808 12.7904 22.0469C12.7962 22.3882 12.9581 22.5849 13.311 22.5907C13.7102 22.5965 14.1094 22.5965 14.5085 22.5907C14.8325 22.5849 15.0003 22.4056 15.0061 22.0758C15.0061 21.7056 15.0234 21.3353 15.0119 20.9651C14.9945 20.5891 15.1565 20.3982 15.5209 20.2998C16.354 20.0742 17.0656 19.6229 17.6152 18.9577C19.1193 17.1064 18.5408 14.4048 16.3887 13.213Z" fill="url(#paint1_linear_1955)"/>
<defs>
<linearGradient id="paint0_linear_1955" x1="14" y1="0" x2="14" y2="28" gradientUnits="userSpaceOnUse">
<stop stop-color="#3AF3FF"/>
<stop offset="1" stop-color="#00C8A4"/>
</linearGradient>
<linearGradient id="paint1_linear_1955" x1="14.0012" y1="5.41211" x2="14.0012" y2="22.5951" gradientUnits="userSpaceOnUse">
<stop stop-color="#3AF3FF"/>
<stop offset="1" stop-color="#00C8A4"/>
</linearGradient>
</defs>
</svg>
