<svg width="28" height="28" viewBox="0 0 28 28" fill="none" xmlns="http://www.w3.org/2000/svg">
<rect x="6" y="13" width="16" height="2" rx="1" fill="#39B8FF"/>
<rect x="15" y="6" width="16" height="2" rx="1" transform="rotate(90 15 6)" fill="#39B8FF"/>
<path d="M14 0C6.28264 0 0 6.28264 0 14C0 21.7174 6.28264 28 14 28C21.7174 28 28 21.7174 28 14C28 6.28264 21.7174 0 14 0ZM14 25.1017C7.87934 25.1017 2.89835 20.1207 2.89835 14C2.89835 7.87934 7.87934 2.89835 14 2.89835C20.1207 2.89835 25.1017 7.87934 25.1017 14C25.1017 20.1207 20.1207 25.1017 14 25.1017Z" fill="url(#paint0_linear_1955)"/>
<defs>
<linearGradient id="paint0_linear_1955" x1="14" y1="0" x2="14" y2="28" gradientUnits="userSpaceOnUse">
<stop stop-color="#3AA1FF"/>
<stop offset="0.275325" stop-color="#2A91F0"/>
<stop offset="1" stop-color="#0068C8"/>
</linearGradient>
</defs>
</svg>
