<?xml version="1.0" encoding="utf-8"?>
<!-- Generator: Adobe Illustrator 24.3.0, SVG Export Plug-In . SVG Version: 6.00 Build 0)  -->
<svg version="1.1" id="Слой_1" xmlns="http://www.w3.org/2000/svg" xmlns:xlink="http://www.w3.org/1999/xlink" x="0px" y="0px"
	 viewBox="0 0 40 40" style="enable-background:new 0 0 40 40;" xml:space="preserve">
<style type="text/css">
	.st0{fill:url(#SVGID_1_);}
	.st1{fill:none;stroke:#F59B69;stroke-width:2;}
	.st2{fill:#FFFFFF;filter:url(#Adobe_OpacityMaskFilter);}
	.st3{mask:url(#path-1-inside-1_2_);fill:#F9E5B3;}
	.st4{fill:url(#SVGID_2_);}
</style>
<linearGradient id="SVGID_1_" gradientUnits="userSpaceOnUse" x1="5.8579" y1="7.8579" x2="34.1421" y2="36.1422" gradientTransform="matrix(1 0 0 -1 0 42)">
	<stop  offset="0" style="stop-color:#8A7400"/>
	<stop  offset="1" style="stop-color:#FFDE33"/>
</linearGradient>
<path class="st0" d="M20,40c11,0,20-9,20-20C40,9,31,0,20,0C9,0,0,9,0,20C0,31,9,40,20,40z"/>
<circle class="st1" cx="20" cy="20" r="19"/>
<defs>
	<filter id="Adobe_OpacityMaskFilter" filterUnits="userSpaceOnUse" x="4.9" y="3.3" width="30.3" height="32.1">
		<feColorMatrix  type="matrix" values="1 0 0 0 0  0 1 0 0 0  0 0 1 0 0  0 0 0 1 0"/>
	</filter>
</defs>
<mask maskUnits="userSpaceOnUse" x="4.9" y="3.3" width="30.3" height="32.1" id="path-1-inside-1_2_">
	<path class="st2" d="M20.1,32.4c-0.2,0-0.5-0.1-0.7-0.2c-3.5-2-7.1-4-10.6-6C8.3,26,8,25.6,8,25.1c-0.1-3.8-0.1-7.6,0-11.4
		c0-0.5,0.3-0.9,0.8-1.2c3.6-2,7.1-4,10.6-6c0.4-0.2,1-0.2,1.4,0c3.5,2,7.1,4,10.6,6c0.5,0.3,0.7,0.7,0.8,1.2
		c0.1,3.8,0.1,7.6,0,11.4c0,0.5-0.3,0.9-0.8,1.2c-3.6,2-7.1,4-10.6,6C20.6,32.4,20.4,32.4,20.1,32.4z"/>
</mask>
<path class="st3" d="M20.1,32.4l0,3L20.1,32.4z M19.4,32.2l1.5-2.6l0,0L19.4,32.2z M8.7,26.3l-1.5,2.6l0,0L8.7,26.3z M8,25.1l-3,0.1
	l0,0L8,25.1z M8,13.7l-3-0.1l0,0L8,13.7z M8.7,12.5L7.3,9.9l0,0L8.7,12.5z M19.4,6.5l1.5,2.6l0,0L19.4,6.5z M20.8,6.5l-1.5,2.6l0,0
	L20.8,6.5z M31.5,12.5l1.5-2.6l0,0L31.5,12.5z M32.2,13.7l3-0.1l0,0L32.2,13.7z M32.2,25.1l-3-0.1l0,0L32.2,25.1z M31.5,26.3
	l1.5,2.6l0,0L31.5,26.3z M20.8,32.2l-1.5-2.6l0,0L20.8,32.2z M20.1,29.4c0.3,0,0.5,0.1,0.7,0.2l-2.9,5.2c0.7,0.4,1.4,0.6,2.2,0.6
	L20.1,29.4z M20.9,29.6c-3.5-1.9-7.1-4-10.6-6l-2.9,5.2c3.6,2,7.1,4,10.6,6L20.9,29.6z M10.2,23.7c0.4,0.2,0.8,0.7,0.8,1.4l-6,0.1
	c0,1.7,1,3,2.3,3.8L10.2,23.7z M11,25c-0.1-3.7-0.1-7.5,0-11.2l-6-0.1c-0.1,3.8-0.1,7.7,0,11.5L11,25z M11,13.8
	c0,0.7-0.4,1.2-0.8,1.4L7.3,9.9C6,10.6,5,12,5,13.6L11,13.8z M10.2,15.1c3.6-2,7.2-4,10.6-6l-2.9-5.2c-3.5,2-7,4-10.6,6L10.2,15.1z
	 M20.9,9.2c-0.5,0.3-1,0.3-1.5,0l2.9-5.2c-1.4-0.8-3-0.8-4.4,0L20.9,9.2z M19.4,9.2c3.5,1.9,7.1,4,10.6,6l2.9-5.2
	c-3.6-2-7.1-4-10.6-6L19.4,9.2z M30,15.1c-0.4-0.2-0.8-0.7-0.8-1.4l6-0.1c0-1.7-1-3-2.3-3.8L30,15.1z M29.2,13.8
	c0.1,3.7,0.1,7.5,0,11.2l6,0.1c0.1-3.8,0.1-7.7,0-11.5L29.2,13.8z M29.2,25c0-0.7,0.4-1.2,0.8-1.4l2.9,5.2c1.3-0.7,2.3-2.1,2.3-3.8
	L29.2,25z M30,23.7c-3.6,2-7.2,4-10.6,6l2.9,5.2c3.5-2,7-4,10.6-6L30,23.7z M19.4,29.6c0.2-0.1,0.5-0.2,0.7-0.2l0,6
	c0.7,0,1.5-0.2,2.2-0.6L19.4,29.6z"/>
<radialGradient id="SVGID_2_" cx="0.9995" cy="40.9737" r="1" gradientTransform="matrix(30.8859 -17.5237 -17.5237 -30.8859 693.7803 1320.5488)" gradientUnits="userSpaceOnUse">
	<stop  offset="0" style="stop-color:#855000;stop-opacity:0.8"/>
	<stop  offset="0.109" style="stop-color:#8D6A0F;stop-opacity:0.713"/>
	<stop  offset="0.3171" style="stop-color:#A38B35;stop-opacity:0.546"/>
	<stop  offset="0.6028" style="stop-color:#C7A03C;stop-opacity:0.318"/>
	<stop  offset="0.9518" style="stop-color:#F8E434;stop-opacity:3.900000e-02"/>
	<stop  offset="1" style="stop-color:#FFEB33;stop-opacity:0"/>
</radialGradient>
<path class="st4" d="M20,37.5c9.7,0,17.5-7.8,17.5-17.5S29.7,2.5,20,2.5C10.3,2.5,2.5,10.3,2.5,20S10.3,37.5,20,37.5z"/>
</svg>
