<svg width="49" height="49" viewBox="0 0 49 49" fill="none" xmlns="http://www.w3.org/2000/svg">
<path d="M24.5 49C38.031 49 49 38.031 49 24.5C49 10.969 38.031 0 24.5 0C10.969 0 0 10.969 0 24.5C0 38.031 10.969 49 24.5 49Z" fill="url(#paint0_linear)"/>
<path d="M24.5 49C38.031 49 49 38.031 49 24.5C49 10.969 38.031 0 24.5 0C10.969 0 0 10.969 0 24.5C0 38.031 10.969 49 24.5 49Z" fill="url(#paint1_radial)"/>
<path d="M24.4999 9.6875C16.5011 9.712 9.7119 16.5011 9.6875 24.4999C9.7119 32.4989 16.5011 39.2879 24.4999 39.3124C32.4988 39.2879 39.288 32.4989 39.3124 24.4999C39.288 16.5011 32.4988 9.7119 24.4999 9.6875Z" fill="url(#paint2_linear)"/>
<path d="M24.4999 9.6875C16.5011 9.712 9.7119 16.5011 9.6875 24.4999C9.7119 32.4989 16.5011 39.2879 24.4999 39.3124C32.4988 39.2879 39.288 32.4989 39.3124 24.4999C39.288 16.5011 32.4988 9.7119 24.4999 9.6875Z" fill="url(#paint3_radial)"/>
<path d="M24.5002 5.27344C14.2675 5.32694 5.32694 14.2675 5.27344 24.5002C5.32694 34.733 14.2675 43.6735 24.5002 43.727C34.7329 43.6735 43.6735 34.7329 43.7269 24.5002C43.6735 14.2675 34.7329 5.32694 24.5002 5.27344ZM39.3126 24.5002C39.3126 25.6873 39.1627 26.8416 38.8827 27.95C35.516 22.1493 32.0221 16.2259 28.6127 10.3021C34.6722 12.1738 39.3082 17.9043 39.3126 24.5002ZM13.6123 30.7533C17.1844 24.5332 20.8996 18.1976 24.5002 11.8949C28.1008 18.1976 31.816 24.5333 35.3881 30.7533C28.1294 30.8194 20.8709 30.8194 13.6123 30.7533ZM20.3876 10.302C16.9782 16.2259 13.4843 22.1492 10.1176 27.9499C9.83771 26.8415 9.68774 25.6873 9.68774 24.5001C9.69215 17.9044 14.3282 12.1738 20.3876 10.302ZM14.3624 35.1433C21.1209 35.2417 27.8795 35.2417 34.638 35.1433C31.9581 37.7009 28.3958 39.314 24.5002 39.3126C20.6046 39.3141 17.0422 37.7009 14.3624 35.1433Z" fill="url(#paint4_linear)"/>
<path d="M35.387 30.7536C30.5839 26.6327 25.6918 22.3945 20.8632 18.2148C18.4331 22.4164 15.9905 26.6107 13.6113 30.7536C20.8698 30.8196 28.1284 30.8196 35.387 30.7536Z" fill="url(#paint5_linear)"/>
<path d="M35.3871 30.7529C31.8151 24.5328 28.1 18.1972 24.4992 11.8945C23.2968 13.9992 22.0816 16.1077 20.8633 18.2142C21.873 25.3235 28.0117 30.8282 35.3871 30.7529Z" fill="url(#paint6_linear)"/>
<path d="M13.6113 30.7529C17.1834 24.5328 20.8985 18.1972 24.4992 11.8945C28.0998 18.1972 31.815 24.5329 35.387 30.7529C28.1284 30.819 20.8699 30.819 13.6113 30.7529Z" fill="url(#paint7_linear)"/>
<path d="M24.4992 11.8945C28.0998 18.1972 31.815 24.5328 35.3871 30.7529C28.1285 30.819 20.8699 30.819 13.6113 30.7529C17.1834 24.5328 20.8985 18.1972 24.4992 11.8945Z" fill="url(#paint8_linear)"/>
<path d="M35.3871 30.7529C28.1285 30.819 20.8699 30.819 13.6113 30.7529C17.1834 24.5328 20.8986 18.1972 24.4993 11.8945C28.0999 18.1972 31.8151 24.5328 35.3871 30.7529Z" fill="url(#paint9_linear)"/>
<defs>
<linearGradient id="paint0_linear" x1="7.17582" y1="41.8241" x2="41.8241" y2="7.17573" gradientUnits="userSpaceOnUse">
<stop stop-color="#364AFF"/>
<stop offset="1" stop-color="#FC54FF"/>
</linearGradient>
<radialGradient id="paint1_radial" cx="0" cy="0" r="1" gradientUnits="userSpaceOnUse" gradientTransform="translate(24.5001 24.5) scale(24.5)">
<stop offset="0.095" stop-color="#8D00DB" stop-opacity="0.66"/>
<stop offset="0.2822" stop-color="#9F0DE1" stop-opacity="0.523"/>
<stop offset="0.6541" stop-color="#CC30F0" stop-opacity="0.252"/>
<stop offset="1" stop-color="#FC54FF" stop-opacity="0"/>
</radialGradient>
<linearGradient id="paint2_linear" x1="-0.36104" y1="49.3609" x2="36.5349" y2="12.465" gradientUnits="userSpaceOnUse">
<stop stop-color="#364AFF"/>
<stop offset="1" stop-color="#FC54FF"/>
</linearGradient>
<radialGradient id="paint3_radial" cx="0" cy="0" r="1" gradientUnits="userSpaceOnUse" gradientTransform="translate(24.4999 24.4999) scale(18.1328)">
<stop stop-color="#FC54FF" stop-opacity="0"/>
<stop offset="0.3248" stop-color="#FA52FE" stop-opacity="0.245"/>
<stop offset="0.4732" stop-color="#F24DFC" stop-opacity="0.356"/>
<stop offset="0.5858" stop-color="#E643F8" stop-opacity="0.441"/>
<stop offset="0.6803" stop-color="#D435F2" stop-opacity="0.512"/>
<stop offset="0.7635" stop-color="#BC24EA" stop-opacity="0.575"/>
<stop offset="0.8374" stop-color="#9F0EE1" stop-opacity="0.631"/>
<stop offset="0.8765" stop-color="#8D00DB" stop-opacity="0.66"/>
</radialGradient>
<linearGradient id="paint4_linear" x1="-4.71041" y1="53.7108" x2="45.9567" y2="3.04366" gradientUnits="userSpaceOnUse">
<stop stop-color="#FDA0FF"/>
<stop offset="1" stop-color="white"/>
</linearGradient>
<linearGradient id="paint5_linear" x1="19.6728" y1="32.9347" x2="31.4022" y2="21.2049" gradientUnits="userSpaceOnUse">
<stop stop-color="#364AFF"/>
<stop offset="1" stop-color="#FC54FF"/>
</linearGradient>
<linearGradient id="paint6_linear" x1="9.24209" y1="42.0232" x2="32.9748" y2="18.2899" gradientUnits="userSpaceOnUse">
<stop stop-color="#364AFF"/>
<stop offset="1" stop-color="#FC54FF"/>
</linearGradient>
<linearGradient id="paint7_linear" x1="24.4992" y1="32.593" x2="24.4992" y2="8.40778" gradientUnits="userSpaceOnUse">
<stop offset="0.0158" stop-color="#8D00DB" stop-opacity="0.66"/>
<stop offset="0.0747" stop-color="#A61AE3" stop-opacity="0.621"/>
<stop offset="0.1555" stop-color="#C036EC" stop-opacity="0.566"/>
<stop offset="0.2464" stop-color="#D74EF3" stop-opacity="0.505"/>
<stop offset="0.3499" stop-color="#E860F8" stop-opacity="0.436"/>
<stop offset="0.4734" stop-color="#F46DFC" stop-opacity="0.353"/>
<stop offset="0.637" stop-color="#FB74FE" stop-opacity="0.243"/>
<stop offset="1" stop-color="#FD76FF" stop-opacity="0"/>
</linearGradient>
<linearGradient id="paint8_linear" x1="17.5066" y1="20.4279" x2="38.4" y2="32.491" gradientUnits="userSpaceOnUse">
<stop offset="0.0158" stop-color="#8D00DB" stop-opacity="0.66"/>
<stop offset="0.0747" stop-color="#A61AE3" stop-opacity="0.621"/>
<stop offset="0.1555" stop-color="#C036EC" stop-opacity="0.566"/>
<stop offset="0.2464" stop-color="#D74EF3" stop-opacity="0.505"/>
<stop offset="0.3499" stop-color="#E860F8" stop-opacity="0.436"/>
<stop offset="0.4734" stop-color="#F46DFC" stop-opacity="0.353"/>
<stop offset="0.637" stop-color="#FB74FE" stop-opacity="0.243"/>
<stop offset="1" stop-color="#FD76FF" stop-opacity="0"/>
</linearGradient>
<linearGradient id="paint9_linear" x1="31.4919" y1="20.4279" x2="10.5985" y2="32.491" gradientUnits="userSpaceOnUse">
<stop offset="0.0158" stop-color="#8D00DB" stop-opacity="0.66"/>
<stop offset="0.0747" stop-color="#A61AE3" stop-opacity="0.621"/>
<stop offset="0.1555" stop-color="#C036EC" stop-opacity="0.566"/>
<stop offset="0.2464" stop-color="#D74EF3" stop-opacity="0.505"/>
<stop offset="0.3499" stop-color="#E860F8" stop-opacity="0.436"/>
<stop offset="0.4734" stop-color="#F46DFC" stop-opacity="0.353"/>
<stop offset="0.637" stop-color="#FB74FE" stop-opacity="0.243"/>
<stop offset="1" stop-color="#FD76FF" stop-opacity="0"/>
</linearGradient>
</defs>
</svg>
