<svg width="31" height="67" viewBox="0 0 31 67" fill="none" xmlns="http://www.w3.org/2000/svg">
<path d="M30.5589 15.0595V47.6337C30.5589 48.3449 29.9827 48.9217 29.2709 48.9217C28.5589 48.9217 27.982 48.3449 27.982 47.6337V15.0595C27.982 8.17592 22.383 2.577 15.5006 2.577C8.61773 2.577 3.01867 8.17686 3.01867 15.0595V17.1875V28.3489V54.547C3.01867 59.9929 7.44921 64.4247 12.8947 64.4247C18.3418 64.4247 22.7721 59.9945 22.7721 54.547V32.8224V21.2221C22.7721 17.6699 19.8825 14.7806 16.3308 14.7806C12.7776 14.7806 9.88921 17.6701 9.88921 21.2221V50.1649C9.88921 50.876 9.31303 51.4529 8.60077 51.4529C7.88879 51.4529 7.31274 50.876 7.31274 50.1649V21.2222C7.31274 16.2504 11.3584 12.2041 16.3308 12.2041C21.3032 12.2041 25.3489 16.2504 25.3489 21.2222V32.8225V54.5471V55.5772C25.3489 55.7594 25.3112 55.9306 25.2432 56.087C24.4807 62.2282 19.2385 67.0001 12.894 67.0001C6.02738 67.0001 0.441406 61.4138 0.441406 54.5471V28.3481V17.1867V15.0587C0.442074 6.75623 7.19697 0 15.5006 0C23.8035 0 30.5589 6.75623 30.5589 15.0595Z" fill="#D1D1D1" fill-opacity="0.4"/>
</svg>
