<svg width="40" height="33" viewBox="0 0 40 33" fill="none" xmlns="http://www.w3.org/2000/svg">
<path d="M9.045 17.555C6.675 17.555 4.74 16.775 3.24 15.215C1.74 13.655 0.99 11.525 0.99 8.825C0.99 7.055 1.335 5.51 2.025 4.19C2.715 2.87 3.66 1.865 4.86 1.175C6.09 0.454998 7.485 0.0949977 9.045 0.0949977C11.445 0.0949977 13.395 0.889998 14.895 2.48C16.395 4.04 17.145 6.155 17.145 8.825C17.145 11.525 16.395 13.655 14.895 15.215C13.395 16.775 11.445 17.555 9.045 17.555ZM27.675 0.499998H34.155L12.645 32H6.165L27.675 0.499998ZM9.045 13.28C9.855 13.28 10.5 12.92 10.98 12.2C11.46 11.48 11.7 10.355 11.7 8.825C11.7 7.295 11.46 6.17 10.98 5.45C10.5 4.73 9.855 4.37 9.045 4.37C8.265 4.37 7.62 4.745 7.11 5.495C6.63 6.215 6.39 7.325 6.39 8.825C6.39 10.325 6.63 11.45 7.11 12.2C7.62 12.92 8.265 13.28 9.045 13.28ZM31.275 32.405C28.875 32.405 26.925 31.625 25.425 30.065C23.955 28.505 23.22 26.375 23.22 23.675C23.22 21.005 23.97 18.89 25.47 17.33C26.97 15.74 28.905 14.945 31.275 14.945C33.675 14.945 35.625 15.74 37.125 17.33C38.625 18.89 39.375 21.005 39.375 23.675C39.375 26.375 38.625 28.505 37.125 30.065C35.625 31.625 33.675 32.405 31.275 32.405ZM31.275 28.13C32.085 28.13 32.73 27.77 33.21 27.05C33.69 26.33 33.93 25.205 33.93 23.675C33.93 22.145 33.69 21.02 33.21 20.3C32.73 19.58 32.085 19.22 31.275 19.22C30.465 19.22 29.82 19.58 29.34 20.3C28.86 21.02 28.62 22.145 28.62 23.675C28.62 25.205 28.86 26.33 29.34 27.05C29.82 27.77 30.465 28.13 31.275 28.13Z" fill="#D8E1F7"/>
</svg>
