<svg width="66" height="55" viewBox="0 0 66 55" fill="none" xmlns="http://www.w3.org/2000/svg">
<path d="M52.4985 40.1739H27.7658C24.1992 40.1739 21.0368 37.8947 20.0716 34.6299L11.7119 7.04115C11.4149 6.04216 10.4277 5.35652 9.30019 5.35652H2.74991C1.22921 5.35652 0 4.15666 0 2.67826C0 1.19986 1.22921 0 2.74991 0H9.30019C12.8668 0 16.0265 2.2792 16.9917 5.544L18.5564 10.713H60.6163C62.3322 10.713 63.9602 11.5085 64.9694 12.8423C65.9703 14.1653 66.2591 15.8205 65.7613 17.3846L60.0883 34.9218C58.9773 38.0875 55.9332 40.1739 52.4985 40.1739Z" fill="#D8E1F7"/>
<path d="M30.1304 54.5217C26.9653 54.5217 24.3913 51.9477 24.3913 48.7826C24.3913 45.6175 26.9653 43.0435 30.1304 43.0435C33.2956 43.0435 35.8696 45.6175 35.8696 48.7826C35.8696 51.9477 33.2956 54.5217 30.1304 54.5217ZM30.1304 48.7797V48.7826V48.7797Z" fill="#D8E1F7"/>
<path d="M49.5 54.5217C46.7305 54.5217 44.4783 51.9477 44.4783 48.7826C44.4783 45.6175 46.7305 43.0435 49.5 43.0435C52.2695 43.0435 54.5217 45.6175 54.5217 48.7826C54.5217 51.9477 52.2695 54.5217 49.5 54.5217ZM49.5 48.7797V48.7826V48.7797Z" fill="#D8E1F7"/>
</svg>
