<svg width="50" height="50" viewBox="0 0 50 50" fill="none" xmlns="http://www.w3.org/2000/svg">
<path d="M23.6489 9.23781L20.9468 6.28848C23.2404 4.18714 26.7596 4.18715 29.0532 6.28848L44.0532 20.0312C45.2937 21.1677 46 22.7728 46 24.4552V40C46 43.3137 43.3137 46 40 46H10C6.68629 46 4 43.3137 4 40V24.4552C4 22.7728 4.70634 21.1677 5.94682 20.0312M23.6489 9.23781L5.94682 20.0312M23.6489 9.23781L20.9468 6.28848M23.6489 9.23781L20.9468 6.28848M5.94682 20.0312L20.9468 6.28848M5.94682 20.0312L20.9468 6.28848" stroke="#D8E1F7" stroke-width="8" stroke-linejoin="round"/>
</svg>
