<svg width="78" height="78" viewBox="0 0 78 78" fill="none" xmlns="http://www.w3.org/2000/svg">
  <circle fill='none' stroke='#2ABD7F' stroke-width='8' cx='39' cy='39' r='35' stroke-dasharray="360" stroke-linecap="round" transform="rotate(-90) translate(-78 0)" >
    <animate attributeName="stroke-dashoffset" values="360;0" dur="3s" repeatCount="1" />
  </circle>
  <path d="M38.9999 5C20.2223 5 5 20.2223 5 38.9999C5 57.7776 20.2223 72.9999 38.9999 72.9999C57.7776 72.9999 72.9999 57.7776 72.9999 38.9999C72.9799 20.2307 57.7693 5.02006 38.9999 5ZM57.7169 28.5741L33.4312 52.8598C32.4828 53.808 30.9455 53.808 29.9972 52.8598L20.2829 43.1455C19.3181 42.2137 19.2914 40.6763 20.2231 39.7116C21.1549 38.7468 22.6923 38.72 23.6571 39.6518C23.6773 39.6714 23.6972 39.6912 23.7169 39.7116L31.7142 47.7089L54.283 25.1401C55.2478 24.2084 56.7852 24.2351 57.7169 25.1998C58.6259 26.1409 58.6259 27.6329 57.7169 28.5741Z" fill="#D8E1F7"/>
</svg>
