<svg xmlns="http://www.w3.org/2000/svg" width="0" height="0" style="display: none;">
  <symbol fill="none" xmlns="http://www.w3.org/2000/svg" viewBox="0 0 22 24" id="icon-bell">
    <path d="M17.6667 7.8C17.6667 4.04446 14.6819 1 11 1C7.3181 1 4.33333 4.04446 4.33333 7.8C4.33333 15.7333 1 18 1 18H21C21 18 17.6667 15.7333 17.6667 7.8Z" stroke="white" stroke-width="2" stroke-linecap="round" stroke-linejoin="round"/>
    <path d="M13 22.0018C12.5864 22.6186 11.8244 22.9982 11 22.9982C10.1756 22.9982 9.41364 22.6186 9 22.0018" stroke="white" stroke-width="2" stroke-linecap="round" stroke-linejoin="round"/>
  </symbol>
  <symbol xmlns="http://www.w3.org/2000/svg" viewBox="0 0 25 25" id="icon-exit">
    <path d="M12.4585 22.8826H3.1146C2.5415 22.8826 2.07642 22.4174 2.07642 21.8444V3.15664C2.07642 2.58354 2.54155 2.11846 3.1146 2.11846H12.4585C13.0326 2.11846 13.4967 1.65439 13.4967 1.08027C13.4967 0.506152 13.0326 0.0419922 12.4585 0.0419922H3.1146C1.39741 0.0419922 0 1.43945 0 3.15664V21.8443C0 23.5615 1.39741 24.9589 3.1146 24.9589H12.4585C13.0326 24.9589 13.4967 24.4949 13.4967 23.9207C13.4967 23.3466 13.0326 22.8826 12.4585 22.8826Z"/>
    <path d="M24.6906 11.7606L18.3783 5.53131C17.9713 5.12848 17.3131 5.13371 16.9103 5.54172C16.5075 5.94972 16.5116 6.6069 16.9207 7.00973L21.4317 11.4615H9.34385C8.76973 11.4615 8.30566 11.9256 8.30566 12.4997C8.30566 13.0738 8.76973 13.538 9.34385 13.538H21.4317L16.9207 17.9898C16.5117 18.3926 16.5085 19.0498 16.9103 19.4578C17.1138 19.6633 17.3816 19.7672 17.6495 19.7672C17.9132 19.7672 18.1769 19.6675 18.3783 19.4681L24.6906 13.2389C24.8879 13.0437 25 12.7779 25 12.4997C25 12.2215 24.8889 11.9568 24.6906 11.7606Z"/>
  </symbol>
  <symbol fill="none" xmlns="http://www.w3.org/2000/svg" viewBox="0 0 49 49" id="icon-user-placeholder">
    <circle cx="24.5" cy="24.5" r="24.5" fill="#787692"/>
    <path d="M35.0084 28.8524C33.3898 27.2338 31.4633 26.0356 29.3613 25.3103C31.6126 23.7597 33.0916 21.1648 33.0916 18.2305C33.0916 13.4932 29.2375 9.63916 24.5003 9.63916C19.7631 9.63916 15.909 13.4932 15.909 18.2305C15.909 21.1648 17.388 23.7597 19.6394 25.3103C17.5374 26.0356 15.6108 27.2338 13.9923 28.8524C11.1854 31.6592 9.63965 35.3911 9.63965 39.3605H11.9616C11.9616 32.4466 17.5864 26.8218 24.5003 26.8218C31.4142 26.8218 37.039 32.4466 37.039 39.3605H39.361C39.361 35.3911 37.8152 31.6592 35.0084 28.8524ZM24.5003 24.4998C21.0434 24.4998 18.231 21.6874 18.231 18.2305C18.231 14.7735 21.0434 11.9611 24.5003 11.9611C27.9572 11.9611 30.7696 14.7735 30.7696 18.2305C30.7696 21.6874 27.9572 24.4998 24.5003 24.4998Z" fill="#D8E1F7"/>
  </symbol>
  <symbol xmlns="http://www.w3.org/2000/svg" viewBox="0 0 20 20" id="icon-cabinet">
    <path fill-rule="evenodd" clip-rule="evenodd" d="M0.993106 7.10625C0.360964 7.67518 0 8.48567 0 9.33613V17C0 18.6569 1.34315 20 3 20H17C18.6569 20 20 18.6569 20 17V9.33613C20 8.48567 19.639 7.67518 19.0069 7.10625L12.0069 0.80625C10.866 -0.220574 9.13402 -0.220572 7.9931 0.806251L0.993106 7.10625ZM9 11C7.89543 11 7 11.8955 7 13V17C7 17.5523 7.44772 18 8 18H12C12.5523 18 13 17.5523 13 17V13C13 11.8955 12.1046 11 11 11H9Z"/>
  </symbol>
  <symbol xmlns="http://www.w3.org/2000/svg" viewBox="0 0 24 24" id="icon-finances">
    <path d="M20.8653 8.06588C21.3105 8.32026 21.1299 9 20.6172 9H3.38278C2.87005 9 2.68954 8.32026 3.13471 8.06588L10.7597 3.70877C11.5282 3.26958 12.4718 3.26958 13.2403 3.70877L20.8653 8.06588Z" stroke-width="2" stroke-linecap="round" stroke-linejoin="round"/>
    <path d="M12 12.5V17.5" stroke-width="2" stroke-linecap="round"/>
    <path d="M5 12.5V17.5" stroke-width="2" stroke-linecap="round"/>
    <path d="M19 12.5V17.5" stroke-width="2" stroke-linecap="round"/>
    <path d="M3 21H21" stroke-width="2" stroke-linecap="round"/>
  </symbol>
  <symbol xmlns="http://www.w3.org/2000/svg" viewBox="0 0 24 24" id="icon-actives">
    <path d="M1 17V20C1 20.5523 1.44772 21 2 21H16C16.5523 21 17 20.5523 17 20V17C17 14.7909 15.2091 13 13 13H5C2.79086 13 1 14.7909 1 17Z" fill="#193932"/>
    <path d="M18.9839 20.3118C18.9485 20.655 19.1912 21 19.5363 21H22C22.5522 21 23 20.5523 23 20V17C23 14.7909 21.2091 13 19 13H18.0314C17.8153 13 17.6967 13.2597 17.8253 13.4334C18.5635 14.4304 19 15.6642 19 17V20C19 20.1053 18.9945 20.2093 18.9839 20.3118Z" fill="#193932"/>
    <path d="M13 7C13 9.20914 11.2091 11 9 11C6.79086 11 5 9.20914 5 7C5 4.79086 6.79086 3 9 3C11.2091 3 13 4.79086 13 7Z" fill="#193932"/>
    <path d="M14.3509 10.9476C14.0101 10.892 13.894 10.4893 14.0782 10.1973C14.6622 9.2717 15.0001 8.17531 15.0001 7C15.0001 5.82469 14.6622 4.7283 14.0782 3.80271C13.894 3.51073 14.0101 3.10804 14.3509 3.05242C14.5622 3.01793 14.7791 3 15.0001 3C17.2093 3 19.0001 4.79086 19.0001 7C19.0001 9.20914 17.2093 11 15.0001 11C14.7791 11 14.5622 10.9821 14.3509 10.9476Z" fill="#193932"/>
  </symbol>
  <symbol xmlns="http://www.w3.org/2000/svg" viewBox="0 0 24 22" id="icon-investments">
    <path d="M11.2194 21.4627C11.1263 21.3258 11.0639 21.1671 11.0256 21H12.9743C12.936 21.1671 12.8737 21.3258 12.7805 21.4627C12.6572 21.6439 12.4407 21.8472 12 21.9723C11.5593 21.8472 11.3428 21.6439 11.2194 21.4627ZM13.166 21C13.166 21 13.1659 21 13.1659 21H13.166ZM10.834 21H10.8341C10.834 21 10.834 21 10.834 21Z" stroke="#193932" stroke-width="2" stroke-linecap="round" stroke-linejoin="round"/>
    <path fill-rule="evenodd" clip-rule="evenodd" d="M6.99995 7.16548C7.7498 4.91615 10.1861 2.38572 11.3583 1.26023C11.7197 0.913258 12.2803 0.913258 12.6416 1.26023C13.8139 2.38572 16.2502 4.91615 16.9999 7.16548C17.3826 8.31348 17.3451 9.96912 17.1244 11.668C18.7236 11.7333 20 13.0503 20 14.6655V18.797C20 19.5957 19.1099 20.0721 18.4453 19.629L15.5254 17.6824C14.9898 18.2977 14.1922 18.6655 13.3297 18.6655H10.6622C9.80136 18.6655 9.00507 18.2991 8.46989 17.6856L5.5547 19.629C4.89015 20.0721 4 19.5957 4 18.797V14.6655C4 13.0536 5.27124 11.7386 6.86583 11.6684C6.64756 9.9766 6.61361 8.32437 6.99995 7.16548ZM12 10.6655C13.1046 10.6655 14 9.77005 14 8.66548C14 7.56091 13.1046 6.66548 12 6.66548C10.8954 6.66548 10 7.56091 10 8.66548C10 9.77005 10.8954 10.6655 12 10.6655Z" fill="#193932"/>
  </symbol>
  <symbol xmlns="http://www.w3.org/2000/svg" viewBox="0 0 24 22" id="icon-partnership">
    <path d="M18 1.5C18 0.947715 17.5523 0.5 17 0.5H7C6.44771 0.5 6 0.947715 6 1.5V7.5C6 8.05228 6.44772 8.5 7 8.5H17C17.5523 8.5 18 8.05228 18 7.5V1.5ZM16 5.5C16 6.05228 15.5523 6.5 15 6.5H9C8.44771 6.5 8 6.05228 8 5.5V3.5C8 2.94772 8.44771 2.5 9 2.5H15C15.5523 2.5 16 2.94772 16 3.5V5.5ZM0 20.5C0 21.0523 0.447715 21.5 1 21.5H5C5.55228 21.5 6 21.0523 6 20.5V16.5C6 15.9477 5.55228 15.5 5 15.5H1C0.447715 15.5 0 15.9477 0 16.5V20.5ZM2 18.5C2 17.9477 2.44772 17.5 3 17.5C3.55228 17.5 4 17.9477 4 18.5C4 19.0523 3.55228 19.5 3 19.5C2.44772 19.5 2 19.0523 2 18.5ZM9 20.5C9 21.0523 9.44772 21.5 10 21.5H14C14.5523 21.5 15 21.0523 15 20.5V16.5C15 15.9477 14.5523 15.5 14 15.5H10C9.44772 15.5 9 15.9477 9 16.5V20.5ZM11 18.5C11 17.9477 11.4477 17.5 12 17.5C12.5523 17.5 13 17.9477 13 18.5C13 19.0523 12.5523 19.5 12 19.5C11.4477 19.5 11 19.0523 11 18.5ZM19 15.5C18.4477 15.5 18 15.9477 18 16.5V20.5C18 21.0523 18.4477 21.5 19 21.5H23C23.5523 21.5 24 21.0523 24 20.5V16.5C24 15.9477 23.5523 15.5 23 15.5H19ZM22 18.5C22 19.0523 21.5523 19.5 21 19.5C20.4477 19.5 20 19.0523 20 18.5C20 17.9477 20.4477 17.5 21 17.5C21.5523 17.5 22 17.9477 22 18.5ZM4 13.5C4 12.9477 4.44772 12.5 5 12.5H10C10.5523 12.5 11 12.9477 11 13.5C11 14.0523 11.4477 14.5 12 14.5C12.5523 14.5 13 14.0523 13 13.5C13 12.9477 13.4477 12.5 14 12.5H19C19.5523 12.5 20 12.9477 20 13.5C20 14.0523 20.4477 14.5 21 14.5C21.5523 14.5 22 14.0523 22 13.5V11.5C22 10.9477 21.5523 10.5 21 10.5H3C2.44772 10.5 2 10.9477 2 11.5V13.5C2 14.0523 2.44772 14.5 3 14.5C3.55228 14.5 4 14.0523 4 13.5Z"/>
  </symbol>
  <symbol xmlns="http://www.w3.org/2000/svg" viewBox="0 0 24 24" id="icon-additionally">
    <path d="M9.81718 1.06049L10.1699 0.714221L9.81718 1.06049C10.1682 1.4181 10.3683 1.90418 10.3712 2.41377V8.66121C10.3683 9.1708 10.1682 9.65689 9.81718 10.0145C9.46645 10.3718 8.99357 10.5721 8.50165 10.575H2.36952C1.8776 10.5721 1.40471 10.3718 1.05398 10.0145C0.702944 9.65687 0.50288 9.17076 0.5 8.66116V2.41383C0.50288 1.90422 0.702944 1.41811 1.05398 1.06049C1.4047 0.703192 1.87758 0.502906 2.36949 0.5H8.50168C8.99359 0.502906 9.46646 0.703192 9.81718 1.06049ZM2.3681 1.375V1.37487L2.35665 1.37513C2.08612 1.38132 1.83022 1.4936 1.64166 1.68569C1.45338 1.87751 1.34651 2.13407 1.34061 2.40147L1.34049 2.40146V2.4125V8.66249C1.34049 8.93468 1.44654 9.19756 1.6382 9.39281C1.83017 9.58838 2.09253 9.69999 2.3681 9.69999H8.50307C8.77864 9.69999 9.041 9.58838 9.23296 9.39281C9.42462 9.19756 9.53067 8.93468 9.53067 8.66249V2.4125C9.53067 2.1403 9.42462 1.87742 9.23296 1.68217C9.04099 1.48661 8.77863 1.375 8.50307 1.375H2.3681Z" />
    <path d="M22.9461 1.06049L23.2988 0.714221L22.9461 1.06049C23.2971 1.4181 23.4972 1.90419 23.5001 2.41377V8.66121C23.4972 9.1708 23.2971 9.65689 22.9461 10.0145C22.5954 10.3718 22.1225 10.5721 21.6306 10.575H15.4984C15.0065 10.5721 14.5336 10.3718 14.1829 10.0145C13.8318 9.65687 13.6318 9.17077 13.6289 8.66116V2.41383C13.6318 1.90422 13.8318 1.41811 14.1829 1.06049C14.5336 0.703192 15.0065 0.502906 15.4984 0.5H21.6306C22.1225 0.502906 22.5954 0.703192 22.9461 1.06049ZM15.497 1.375C15.2214 1.375 14.9591 1.48661 14.7671 1.68217C14.5754 1.87742 14.4694 2.1403 14.4694 2.4125V8.66249C14.4694 8.93468 14.5754 9.19756 14.7671 9.39281C14.9591 9.58838 15.2214 9.69999 15.497 9.69999H21.632C21.9075 9.69999 22.1699 9.58838 22.3619 9.39281C22.5535 9.19756 22.6596 8.93468 22.6596 8.66249V2.4125C22.6596 2.1403 22.5535 1.87742 22.3619 1.68217C22.1699 1.48661 21.9075 1.375 21.632 1.375H15.497Z"/>
    <path d="M9.81718 13.9855L10.166 13.6432L9.81718 13.9855C10.1682 14.3431 10.3683 14.8292 10.3712 15.3388V21.5863C10.3683 22.0958 10.1682 22.5819 9.81718 22.9395C9.46645 23.2968 8.99357 23.4971 8.50165 23.5H2.36952C1.8776 23.4971 1.40471 23.2968 1.05398 22.9395C0.702944 22.5819 0.50288 22.0958 0.5 21.5862V15.3389C0.50288 14.8293 0.702944 14.3432 1.05398 13.9855C1.4047 13.6282 1.87758 13.428 2.36949 13.425H8.50168C8.99359 13.428 9.46646 13.6282 9.81718 13.9855ZM1.34049 21.5875H1.34037L1.34061 21.5986C1.34651 21.866 1.45338 22.1225 1.64166 22.3143L1.99848 21.9641L1.64166 22.3143C1.83021 22.5064 2.08611 22.6187 2.35665 22.6249L2.35665 22.625H2.3681H8.50307C8.77863 22.625 9.04099 22.5134 9.23296 22.3179C9.42462 22.1226 9.53067 21.8597 9.53067 21.5875V15.3375C9.53067 15.0654 9.42462 14.8025 9.23296 14.6072C9.04099 14.4117 8.77863 14.3 8.50307 14.3H2.3681C2.09253 14.3 1.83017 14.4117 1.6382 14.6072C1.44654 14.8025 1.34049 15.0654 1.34049 15.3375V21.5875Z"/>
    <path d="M22.9461 13.9855L23.2949 13.6432L22.9461 13.9855C23.2971 14.3431 23.4972 14.8292 23.5001 15.3388V21.5863C23.4972 22.0958 23.2971 22.5819 22.9461 22.9395C22.5954 23.2968 22.1225 23.4971 21.6306 23.5H15.4984C15.0065 23.4971 14.5336 23.2968 14.1829 22.9395C13.8318 22.5819 13.6318 22.0958 13.6289 21.5862V15.3389C13.6318 14.8293 13.8318 14.3432 14.1829 13.9855C14.5336 13.6282 15.0065 13.428 15.4984 13.425H21.6306C22.1225 13.428 22.5954 13.6282 22.9461 13.9855ZM15.497 14.3C15.2214 14.3 14.9591 14.4117 14.7671 14.6072C14.5754 14.8025 14.4694 15.0654 14.4694 15.3375V21.5875C14.4694 21.8597 14.5754 22.1226 14.7671 22.3179C14.9591 22.5134 15.2214 22.625 15.497 22.625H21.632C21.9075 22.625 22.1699 22.5134 22.3619 22.3179C22.5535 22.1226 22.6596 21.8597 22.6596 21.5875V15.3375C22.6596 15.0654 22.5535 14.8025 22.3619 14.6072C22.1699 14.4117 21.9075 14.3 21.632 14.3H15.497Z"/>
  </symbol>
  <symbol xmlns="http://www.w3.org/2000/svg" viewBox="0 0 20 20" id="icon-settings">
    <path fill-rule="evenodd" clip-rule="evenodd" d="M20 10C20 15.5228 15.5228 20 10 20C4.47715 20 0 15.5228 0 10C0 4.47715 4.47715 0 10 0C15.5228 0 20 4.47715 20 10ZM15.7137 14.4006C16.0416 14.7351 16.0416 15.265 15.7136 15.5996C14.2617 17.0809 12.2382 18 10.0001 18C7.76186 18 5.73834 17.0809 4.28636 15.5994C3.95845 15.2649 3.95846 14.735 4.28637 14.4004C5.73834 12.9191 7.76181 12 9.99995 12C12.2382 12 14.2617 12.9192 15.7137 14.4006ZM10 10C11.6569 10 13 8.65685 13 7C13 5.34315 11.6569 4 10 4C8.34315 4 7 5.34315 7 7C7 8.65685 8.34315 10 10 10Z" fill="#193932"/>
  </symbol>
  <symbol fill="none" xmlns="http://www.w3.org/2000/svg" viewBox="0 0 22 22" id="icon-referral">
    <path fill-rule="evenodd" clip-rule="evenodd" d="M12.8333 4.58333H5.5C4.99374 4.58333 4.58333 4.99374 4.58333 5.5V12.8333C4.58333 13.3396 4.99374 13.75 5.5 13.75H12.8333C13.3396 13.75 13.75 13.3396 13.75 12.8333V5.5C13.75 4.99374 13.3396 4.58333 12.8333 4.58333ZM5.5 2.75C3.98122 2.75 2.75 3.98122 2.75 5.5V12.8333C2.75 14.3521 3.98122 15.5833 5.5 15.5833H12.8333C14.3521 15.5833 15.5833 14.3521 15.5833 12.8333V5.5C15.5833 3.98122 14.3521 2.75 12.8333 2.75H5.5Z" fill="#5CD6CF"/>
    <path d="M6.41675 9.16663C6.41675 7.64784 7.64797 6.41663 9.16675 6.41663H16.5001C18.0189 6.41663 19.2501 7.64784 19.2501 9.16663V16.5C19.2501 18.0187 18.0189 19.25 16.5001 19.25H9.16675C7.64797 19.25 6.41675 18.0187 6.41675 16.5V9.16663Z" fill="#5CD6CF"/>
  </symbol>
  <symbol xmlns="http://www.w3.org/2000/svg" viewBox="0 0 78 78" id="icon-ok">
    <circle fill='none' stroke='#5CD6CF' stroke-width='8' cx='39' cy='39' r='35' stroke-dasharray="360" stroke-linecap="round" transform="rotate(-90) translate(-78 0)" >
      <animate attributeName="stroke-dashoffset" values="360;0" dur="3s" repeatCount="1" />
    </circle>
    <path d="M38.9999 5C20.2223 5 5 20.2223 5 38.9999C5 57.7776 20.2223 72.9999 38.9999 72.9999C57.7776 72.9999 72.9999 57.7776 72.9999 38.9999C72.9799 20.2307 57.7693 5.02006 38.9999 5ZM57.7169 28.5741L33.4312 52.8598C32.4828 53.808 30.9455 53.808 29.9972 52.8598L20.2829 43.1455C19.3181 42.2137 19.2914 40.6763 20.2231 39.7116C21.1549 38.7468 22.6923 38.72 23.6571 39.6518C23.6773 39.6714 23.6972 39.6912 23.7169 39.7116L31.7142 47.7089L54.283 25.1401C55.2478 24.2084 56.7852 24.2351 57.7169 25.1998C58.6259 26.1409 58.6259 27.6329 57.7169 28.5741Z" fill="#D8E1F7"/>
  </symbol>
  <symbol xmlns="http://www.w3.org/2000/svg" viewBox="0 0 24 24" id="icon-close">
    <path d="M 4.7070312 3.2929688 L 3.2929688 4.7070312 L 10.585938 12 L 3.2929688 19.292969 L 4.7070312 20.707031 L 12 13.414062 L 19.292969 20.707031 L 20.707031 19.292969 L 13.414062 12 L 20.707031 4.7070312 L 19.292969 3.2929688 L 12 10.585938 L 4.7070312 3.2929688 z"/>
  </symbol>
  <symbol xmlns="http://www.w3.org/2000/svg" viewBox="0 0 16 30" id="icon-facebook">
    <path d="M9.82812 10.3125V6.5625C9.82812 5.5275 10.6681 4.6875 11.7031 4.6875H13.5781V0H9.82812C6.72125 0 4.20312 2.51813 4.20312 5.625V10.3125H0.453125V15H4.20312V30H9.82812V15H13.5781L15.4531 10.3125H9.82812Z"/>
  </symbol>
  <symbol xmlns="http://www.w3.org/2000/svg" viewBox="0 0 31 30" id="icon-instagram">
    <path d="M21.0039 0H9.75391C4.57703 0 0.378906 4.19813 0.378906 9.375V20.625C0.378906 25.8019 4.57703 30 9.75391 30H21.0039C26.1808 30 30.3789 25.8019 30.3789 20.625V9.375C30.3789 4.19813 26.1808 0 21.0039 0ZM27.5664 20.625C27.5664 24.2437 24.6227 27.1875 21.0039 27.1875H9.75391C6.13516 27.1875 3.19141 24.2437 3.19141 20.625V9.375C3.19141 5.75625 6.13516 2.8125 9.75391 2.8125H21.0039C24.6227 2.8125 27.5664 5.75625 27.5664 9.375V20.625Z"/>
    <path d="M15.3789 7.49957C11.237 7.49957 7.87891 10.8577 7.87891 14.9996C7.87891 19.1414 11.237 22.4996 15.3789 22.4996C19.5208 22.4996 22.8789 19.1414 22.8789 14.9996C22.8789 10.8577 19.5208 7.49957 15.3789 7.49957ZM15.3789 19.6871C12.7952 19.6871 10.6914 17.5833 10.6914 14.9996C10.6914 12.4139 12.7952 10.3121 15.3789 10.3121C17.9627 10.3121 20.0664 12.4139 20.0664 14.9996C20.0664 17.5833 17.9627 19.6871 15.3789 19.6871Z"/>
    <path d="M23.4349 7.93802C23.9869 7.93802 24.4343 7.49058 24.4343 6.93864C24.4343 6.3867 23.9869 5.93927 23.4349 5.93927C22.883 5.93927 22.4355 6.3867 22.4355 6.93864C22.4355 7.49058 22.883 7.93802 23.4349 7.93802Z"/>
  </symbol>
  <symbol xmlns="http://www.w3.org/2000/svg" viewBox="0 0 32 18" id="icon-vk">
    <path d="M31.0248 15.5816C30.9421 15.4466 30.4301 14.3628 27.9668 12.1351C25.388 9.80245 25.7344 10.1812 28.8405 6.14781C30.7323 3.69137 31.4886 2.19126 31.2519 1.54996C31.0267 0.938667 29.6353 1.09993 29.6353 1.09993L25.0089 1.12618C25.0089 1.12618 24.6663 1.08118 24.4104 1.22931C24.1621 1.37557 24.0024 1.7131 24.0024 1.7131C24.0024 1.7131 23.2691 3.61449 22.2915 5.23086C20.2304 8.64174 19.4048 8.82175 19.068 8.60986C18.2847 8.1167 18.481 6.62597 18.481 5.56839C18.481 2.26252 18.9949 0.884288 17.4784 0.528012C16.9742 0.409878 16.6047 0.331122 15.3172 0.317996C13.666 0.30112 12.2669 0.323621 11.4759 0.700525C10.9486 0.951793 10.5425 1.51246 10.7908 1.54434C11.0968 1.58372 11.7896 1.72623 12.1572 2.21376C12.6325 2.84193 12.6152 4.25579 12.6152 4.25579C12.6152 4.25579 12.8885 8.1467 11.9782 8.63049C11.3527 8.96239 10.4963 8.28546 8.65846 5.18961C7.71739 3.60512 7.00533 1.85186 7.00533 1.85186C7.00533 1.85186 6.86869 1.52559 6.62428 1.3512C6.32791 1.13931 5.91222 1.0718 5.91222 1.0718L1.51285 1.09805C1.51285 1.09805 0.852753 1.11681 0.610268 1.3962C0.394726 1.6456 0.592948 2.15938 0.592948 2.15938C0.592948 2.15938 4.03777 10.0106 7.93678 13.969C11.5144 17.5974 15.5751 17.3593 15.5751 17.3593H17.4149C17.4149 17.3593 17.971 17.2993 18.2539 17.0011C18.5157 16.7273 18.506 16.2136 18.506 16.2136C18.506 16.2136 18.4695 13.8078 19.6165 13.4533C20.7461 13.1046 22.1972 15.7785 23.7349 16.808C24.8973 17.5862 25.7806 17.4155 25.7806 17.4155L29.8932 17.3593C29.8932 17.3593 32.0448 17.2299 31.0248 15.5816Z"/>
  </symbol>
  <symbol xmlns="http://www.w3.org/2000/svg" viewBox="0 0 30 25" id="icon-telegram">
    <path d="M11.5517 15.9121L11.0647 22.5659C11.7615 22.5659 12.0632 22.2751 12.4251 21.926L15.6917 18.8934L22.4604 23.7086C23.7018 24.3806 24.5764 24.0267 24.9113 22.5992L29.3543 2.37568L29.3555 2.37449C29.7493 0.591878 28.6919 -0.105198 27.4824 0.332113L1.36672 10.0447C-0.415621 10.7168 -0.388635 11.6819 1.06374 12.1193L7.74047 14.1366L23.2492 4.70999C23.9791 4.24051 24.6427 4.50027 24.0968 4.96975L11.5517 15.9121Z"/>
  </symbol>
  <symbol xmlns="http://www.w3.org/2000/svg" viewBox="0 0 10 17" id="icon-classmates">
    <path d="M6.83764 12.355C7.6668 12.1473 8.45556 11.7913 9.17518 11.2983C9.7161 10.903 9.86266 10.1061 9.49993 9.51369C9.15278 8.94628 8.45799 8.77467 7.92047 9.1232C6.26458 10.2522 4.15977 10.2522 2.50387 9.1232C1.95613 8.74439 1.22823 8.92396 0.881086 9.52113C0.881086 9.52378 0.881086 9.52378 0.881086 9.52378C0.533936 10.1247 0.698504 10.9184 1.24917 11.2945L1.25112 11.2972C1.96927 11.7902 2.75803 12.1467 3.58427 12.3518L1.33486 14.8058C0.87573 15.2988 0.868914 16.1005 1.31733 16.6021L1.3373 16.6239C1.56078 16.8751 1.86265 17 2.16452 17C2.46638 17 2.76777 16.8751 2.99076 16.6239L5.21242 14.2134L7.42093 16.627C7.89029 17.1164 8.63571 17.1052 9.08754 16.5936C9.52817 16.0958 9.52817 15.3063 9.08754 14.8085L6.83764 12.355ZM5.21193 8.77467C7.43359 8.77202 9.23117 6.80946 9.2336 4.3884C9.2336 1.97 7.42823 0 5.21193 0C2.99563 0 1.19026 1.97 1.19026 4.3884C1.19269 6.81264 2.99319 8.77467 5.21193 8.77733V8.77467ZM5.21193 2.57354C6.12971 2.57354 6.87513 3.38693 6.87513 4.3884C6.87513 5.39306 6.12971 6.20379 5.21193 6.20698C4.29415 6.20433 3.54873 5.39306 3.5463 4.3884C3.54873 3.38693 4.29415 2.57354 5.21193 2.57088V2.57354Z"/>
  </symbol>
  <symbol xmlns="http://www.w3.org/2000/svg" viewBox="0 0 21 17" id="icon-twitter">
    <path d="M21 2.01236C20.228 2.3542 19.3972 2.58478 18.5254 2.68797C19.4155 2.15717 20.098 1.31638 20.4198 0.313384C19.5873 0.80554 18.6657 1.16266 17.6839 1.35545C16.8983 0.521457 15.7785 0 14.5392 0C12.1602 0 10.2312 1.92149 10.2312 4.29183C10.2312 4.62772 10.2692 4.95511 10.3429 5.26977C6.76213 5.09057 3.58718 3.38225 1.46215 0.785582C1.09129 1.41914 0.878997 2.15632 0.878997 2.9436C0.878997 4.43238 1.63949 5.74622 2.79557 6.51566C2.08964 6.49316 1.42507 6.29994 0.844041 5.97849C0.843615 5.99633 0.843615 6.01459 0.843615 6.03285C0.843615 8.11188 2.32879 9.84611 4.29992 10.241C3.93843 10.3387 3.55776 10.3913 3.16473 10.3913C2.88679 10.3913 2.61695 10.3646 2.35394 10.3141C2.90256 12.019 4.49345 13.2602 6.37848 13.2946C4.90396 14.4458 3.04665 15.132 1.02777 15.132C0.680348 15.132 0.33719 15.1116 0 15.0717C1.90719 16.29 4.17161 17 6.60441 17C14.5294 17 18.8626 10.4606 18.8626 4.78908C18.8626 4.60309 18.8588 4.41752 18.8507 4.23323C19.6922 3.62939 20.4228 2.87311 21 2.01236Z"/>
  </symbol>
  <symbol xmlns="http://www.w3.org/2000/svg" viewBox="0 0 25 18" id="icon-youtube">
    <path d="M24.751 3.79394C24.751 3.79394 24.5068 2.07031 23.7549 1.31348C22.8027 0.317383 21.7383 0.3125 21.25 0.253906C17.7539 -1.39698e-07 12.5049 0 12.5049 0H12.4951C12.4951 0 7.24609 -1.39698e-07 3.75 0.253906C3.26172 0.3125 2.19727 0.317383 1.24512 1.31348C0.493164 2.07031 0.253906 3.79394 0.253906 3.79394C0.253906 3.79394 0 5.82031 0 7.84179V9.73632C0 11.7578 0.249023 13.7842 0.249023 13.7842C0.249023 13.7842 0.493164 15.5078 1.24023 16.2646C2.19238 17.2607 3.44238 17.2266 3.99902 17.334C6.00098 17.5244 12.5 17.583 12.5 17.583C12.5 17.583 17.7539 17.5732 21.25 17.3242C21.7383 17.2656 22.8027 17.2607 23.7549 16.2646C24.5068 15.5078 24.751 13.7842 24.751 13.7842C24.751 13.7842 25 11.7627 25 9.73632V7.84179C25 5.82031 24.751 3.79394 24.751 3.79394ZM9.91699 12.0361V5.00976L16.6699 8.53515L9.91699 12.0361Z" />
  </symbol>
  <symbol xmlns="http://www.w3.org/2000/svg" viewBox="0 0 66 55" id="icon-cart">
    <path d="M52.4985 40.1739H27.7658C24.1992 40.1739 21.0368 37.8947 20.0716 34.6299L11.7119 7.04115C11.4149 6.04216 10.4277 5.35652 9.30019 5.35652H2.74991C1.22921 5.35652 0 4.15666 0 2.67826C0 1.19986 1.22921 0 2.74991 0H9.30019C12.8668 0 16.0265 2.2792 16.9917 5.544L18.5564 10.713H60.6163C62.3322 10.713 63.9602 11.5085 64.9694 12.8423C65.9703 14.1653 66.2591 15.8205 65.7613 17.3846L60.0883 34.9218C58.9773 38.0875 55.9332 40.1739 52.4985 40.1739Z" fill="#D8E1F7"/>
    <path d="M30.1304 54.5217C26.9653 54.5217 24.3913 51.9477 24.3913 48.7826C24.3913 45.6175 26.9653 43.0435 30.1304 43.0435C33.2956 43.0435 35.8696 45.6175 35.8696 48.7826C35.8696 51.9477 33.2956 54.5217 30.1304 54.5217ZM30.1304 48.7797V48.7826V48.7797Z" fill="#D8E1F7"/>
    <path d="M49.5 54.5217C46.7305 54.5217 44.4783 51.9477 44.4783 48.7826C44.4783 45.6175 46.7305 43.0435 49.5 43.0435C52.2695 43.0435 54.5217 45.6175 54.5217 48.7826C54.5217 51.9477 52.2695 54.5217 49.5 54.5217ZM49.5 48.7797V48.7826V48.7797Z" fill="#D8E1F7"/>
  </symbol>
  <symbol xmlns="http://www.w3.org/2000/svg" viewBox="0 0 26 26" id="icon-faq">
    <path d="M4.51472 4.51472C2.83649 6.19295 1.6936 8.33114 1.23058 10.6589C0.767554 12.9867 1.00519 15.3995 1.91345 17.5922C2.8217 19.7849 4.35977 21.6591 6.33316 22.9776C8.30655 24.2962 10.6266 25 13 25C15.3734 25 17.6935 24.2962 19.6668 22.9776C21.6402 21.6591 23.1783 19.7849 24.0866 17.5922C24.9948 15.3995 25.2324 12.9867 24.7694 10.6589C24.3064 8.33114 23.1635 6.19295 21.4853 4.51472" stroke-width="2" stroke-linecap="round"/>
    <path d="M13 9L13 1" stroke-width="2" stroke-linecap="round"/>
  </symbol>
  <symbol xmlns="http://www.w3.org/2000/svg" viewBox="0 0 26 26" id="icon-balance">
    <rect width="26" height="26" rx="13" fill="#A2B7C1"/>
    <path fill-rule="evenodd" clip-rule="evenodd" d="M7.58325 10.2916C7.58325 9.39416 8.31079 8.66663 9.20825 8.66663H16.7916C17.689 8.66663 18.4166 9.39416 18.4166 10.2916V15.7083C18.4166 16.6058 17.689 17.3333 16.7916 17.3333H9.20825C8.31079 17.3333 7.58325 16.6058 7.58325 15.7083V10.2916ZM9.20825 9.74996H16.7916C17.0907 9.74996 17.3333 9.99247 17.3333 10.2916V10.8333H8.66659V10.2916C8.66659 9.99247 8.9091 9.74996 9.20825 9.74996ZM8.66659 11.9166V15.7083C8.66659 16.0074 8.9091 16.25 9.20825 16.25H16.7916C17.0907 16.25 17.3333 16.0074 17.3333 15.7083V11.9166H8.66659Z" fill="#FCFCFC"/>
    <path fill-rule="evenodd" clip-rule="evenodd" d="M9.75 14.625C9.75 14.3259 9.99251 14.0834 10.2917 14.0834H13.5417C13.8408 14.0834 14.0833 14.3259 14.0833 14.625C14.0833 14.9242 13.8408 15.1667 13.5417 15.1667H10.2917C9.99251 15.1667 9.75 14.9242 9.75 14.625Z" fill="#FCFCFC"/>
  </symbol>
  <symbol xmlns="http://www.w3.org/2000/svg" viewBox="0 0 36 46" id="icon-lock">
    <path fill-rule="evenodd" clip-rule="evenodd" d="M6.75 11.75V14C3.02208 14 0 17.0221 0 20.75V38.75C0 42.4779 3.02208 45.5 6.75 45.5H29.25C32.9779 45.5 36 42.4779 36 38.75V20.75C36 17.0221 32.9779 14 29.25 14V11.75C29.25 5.5368 24.2132 0.5 18 0.5C11.7868 0.5 6.75 5.5368 6.75 11.75ZM18 5C14.2721 5 11.25 8.02208 11.25 11.75V14H24.75V11.75C24.75 8.02208 21.7279 5 18 5ZM22.5 27.5C22.5 29.1656 21.5951 30.6199 20.25 31.398V34.25C20.25 35.4926 19.2426 36.5 18 36.5C16.7574 36.5 15.75 35.4926 15.75 34.25V31.398C14.4049 30.6199 13.5 29.1656 13.5 27.5C13.5 25.0147 15.5147 23 18 23C20.4853 23 22.5 25.0147 22.5 27.5Z" fill="#55CFB2"/>
  </symbol>
</svg>
