<svg width="80" height="80" viewBox="0 0 80 80" fill="none" xmlns="http://www.w3.org/2000/svg">
<path d="M40 80C62.0914 80 80 62.0914 80 40C80 17.9086 62.0914 0 40 0C17.9086 0 0 17.9086 0 40C0 62.0914 17.9086 80 40 80Z" fill="url(#paint0_linear)"/>
<path d="M40 80C62.0914 80 80 62.0914 80 40C80 17.9086 62.0914 0 40 0C17.9086 0 0 17.9086 0 40C0 62.0914 17.9086 80 40 80Z" fill="url(#paint1_radial)"/>
<path d="M61.6055 19.673C60.4745 19.1636 59.2121 19.3639 58.3925 20.1906C56.4927 22.1056 54.5547 24.0517 52.5898 26.0189C53.5176 37.9556 54.205 49.8655 54.5058 61.7415C56.4879 61.6861 58.4701 61.6191 60.4523 61.5404C62.0923 61.4733 63.4978 60.0805 63.5767 58.4402C64.1393 46.4591 64.1393 34.4782 63.5767 22.4971C63.52 21.2969 62.7371 20.1827 61.6055 19.673Z" fill="url(#paint2_linear)"/>
<path d="M57.7642 28.2675C57.998 38.3926 57.9408 48.5177 57.5926 58.6428C57.5334 60.3021 56.1477 61.6944 54.5074 61.7413C43.1871 62.0572 31.8669 61.9902 20.5465 61.5401C18.9062 61.4731 17.5009 60.0802 17.422 58.4399C16.8593 46.4589 16.8593 34.478 17.422 22.4969C17.4787 21.2965 18.2616 20.1823 19.3919 19.6729C20.5242 19.1633 21.7867 19.3637 22.606 20.1905C25.1316 22.7364 27.7252 25.3369 30.3591 27.9691C33.0657 25.2758 35.7552 22.5751 38.4 19.89C39.5686 18.7033 41.4315 18.7033 42.6001 19.89C45.2449 22.575 47.9345 25.2758 50.641 27.9691C51.2938 27.317 51.944 26.6667 52.5913 26.0188C53.4393 25.1846 54.7133 24.9615 55.8384 25.4504C56.2278 25.6195 56.5739 25.8622 56.8625 26.1574C57.4097 26.7192 57.7458 27.4713 57.7642 28.2675Z" fill="url(#paint3_linear)"/>
<path d="M52.8493 34.4098C52.261 34.9922 51.4868 35.2817 50.7111 35.2783C49.3664 36.665 48.0155 38.0582 46.6621 39.4547C48.0174 40.8528 49.3714 42.2479 50.7204 43.6371C53.112 43.6303 55.5036 43.6209 57.8952 43.6093C57.9231 38.9126 57.8885 34.2161 57.7911 29.5195C56.1591 31.1344 54.5097 32.7664 52.8493 34.4098Z" fill="#BE4FFE"/>
<path d="M48.5632 34.386C45.8618 31.707 43.1652 29.0184 40.5008 26.3434C37.8364 29.0184 35.1397 31.707 32.4382 34.386C31.2464 35.5685 29.3283 35.5741 28.151 34.4096C26.4907 32.7661 24.8412 31.1342 23.2091 29.5192C23.1119 34.2159 23.0771 38.9124 23.105 43.609C32.3105 43.6541 41.5159 43.6634 50.7214 43.6369C50.7311 40.8507 50.728 38.0643 50.7122 35.2781C49.9367 35.2742 49.1595 34.9772 48.5632 34.386Z" fill="url(#paint4_linear)"/>
<defs>
<linearGradient id="paint0_linear" x1="11.7156" y1="68.2842" x2="68.2842" y2="11.7155" gradientUnits="userSpaceOnUse">
<stop stop-color="#364AFF"/>
<stop offset="1" stop-color="#FC54FF"/>
</linearGradient>
<radialGradient id="paint1_radial" cx="0" cy="0" r="1" gradientUnits="userSpaceOnUse" gradientTransform="translate(40.0002 40) scale(40)">
<stop offset="0.095" stop-color="#8D00DB" stop-opacity="0.66"/>
<stop offset="0.2822" stop-color="#9F0DE1" stop-opacity="0.523"/>
<stop offset="0.6541" stop-color="#CC30F0" stop-opacity="0.252"/>
<stop offset="1" stop-color="#FC54FF" stop-opacity="0"/>
</radialGradient>
<linearGradient id="paint2_linear" x1="55.4788" y1="59.5945" x2="47.4445" y2="33.8001" gradientUnits="userSpaceOnUse">
<stop stop-color="#D5CCFE"/>
<stop offset="1" stop-color="#E4DDFE"/>
</linearGradient>
<linearGradient id="paint3_linear" x1="-43.5532" y1="121.651" x2="89.3089" y2="2.50848" gradientUnits="userSpaceOnUse">
<stop stop-color="#8569F9"/>
<stop offset="1" stop-color="white"/>
</linearGradient>
<linearGradient id="paint4_linear" x1="15.1563" y1="58.3872" x2="55.468" y2="18.0755" gradientUnits="userSpaceOnUse">
<stop stop-color="#F654FF"/>
<stop offset="1" stop-color="#594BFF"/>
</linearGradient>
</defs>
</svg>
