<svg width="135" height="135" viewBox="0 0 135 135" fill="none" xmlns="http://www.w3.org/2000/svg">
<path d="M67 107C89.0914 107 107 89.0914 107 67C107 44.9086 89.0914 27 67 27C44.9086 27 27 44.9086 27 67C27 89.0914 44.9086 107 67 107Z" fill="url(#paint0_linear)"/>
<path d="M67 107C89.0914 107 107 89.0914 107 67C107 44.9086 89.0914 27 67 27C44.9086 27 27 44.9086 27 67C27 89.0914 44.9086 107 67 107Z" fill="url(#paint1_radial)"/>
<path d="M77.1143 90.4256C73.6386 92.5039 70.1899 94.566 66.788 96.5868C63.3862 94.566 59.9375 92.5039 56.4619 90.4256C51.3913 87.3937 46.2633 84.3275 41.1392 81.3049C40.9523 71.6619 40.9523 62.0187 41.1392 52.3757C46.2552 49.3579 51.3755 46.2962 56.4385 43.2688C59.9221 41.1858 63.3787 39.1189 66.788 37.0938C70.1899 39.1146 73.6385 41.1767 77.1142 43.2549C82.1847 46.2868 87.3128 49.3531 92.4369 52.3757C92.6239 62.0187 92.6239 71.6619 92.4369 81.3049C87.3128 84.3275 82.1848 87.3937 77.1143 90.4256Z" stroke="white" stroke-width="8"/>
<g filter="url(#filter0_d)">
<circle cx="67.5" cy="67.5" r="53.5" stroke="#D95CF9" stroke-width="6"/>
</g>
<path d="M67 107C89.0914 107 107 89.0914 107 67C107 44.9086 89.0914 27 67 27C44.9086 27 27 44.9086 27 67C27 89.0914 44.9086 107 67 107Z" fill="url(#paint2_linear)"/>
<path d="M67 107C89.0914 107 107 89.0914 107 67C107 44.9086 89.0914 27 67 27C44.9086 27 27 44.9086 27 67C27 89.0914 44.9086 107 67 107Z" fill="url(#paint3_radial)"/>
<path d="M91.7443 42.7958C90.407 42.1934 88.9143 42.4303 87.9452 43.4078C85.6988 45.6722 83.4073 47.9733 81.084 50.2993C82.181 64.4136 82.9938 78.4962 83.3495 92.5387C85.6932 92.4733 88.037 92.394 90.3807 92.3009C92.3199 92.2215 93.9818 90.5747 94.0751 88.6351C94.7404 74.4684 94.7404 60.3018 94.0751 46.1351C94.0081 44.7159 93.0824 43.3984 91.7443 42.7958Z" fill="url(#paint4_linear)"/>
<path d="M87.2007 52.9581C87.4771 64.9303 87.4095 76.9025 86.9977 88.8747C86.9277 90.8367 85.2893 92.483 83.3498 92.5384C69.9643 92.912 56.579 92.8328 43.1935 92.3006C41.254 92.2214 39.5923 90.5744 39.499 88.6348C38.8337 74.4681 38.8337 60.3016 39.499 46.1348C39.566 44.7155 40.4918 43.398 41.8282 42.7956C43.1671 42.1931 44.6599 42.43 45.6287 43.4077C48.6151 46.418 51.6818 49.493 54.7962 52.6053C57.9965 49.4206 61.1766 46.2273 64.304 43.0523C65.6857 41.6492 67.8885 41.6492 69.2702 43.0523C72.3976 46.2272 75.5777 49.4206 78.778 52.6053C79.5499 51.8342 80.3187 51.0653 81.0841 50.2992C82.0868 49.3128 83.5932 49.0491 84.9235 49.6272C85.384 49.827 85.7932 50.1141 86.1345 50.4631C86.7815 51.1273 87.179 52.0167 87.2007 52.9581Z" fill="url(#paint5_linear)"/>
<path d="M91.7443 42.7958C90.407 42.1934 88.9143 42.4303 87.9452 43.4078C85.6988 45.6722 83.4073 47.9733 81.084 50.2993C82.181 64.4136 82.9938 78.4962 83.3495 92.5387C85.6932 92.4733 88.037 92.394 90.3807 92.3009C92.3199 92.2215 93.9818 90.5747 94.0751 88.6351C94.7404 74.4684 94.7404 60.3018 94.0751 46.1351C94.0081 44.7159 93.0824 43.3984 91.7443 42.7958Z" fill="url(#paint6_linear)"/>
<path d="M87.2007 52.9581C87.4771 64.9303 87.4095 76.9025 86.9977 88.8747C86.9277 90.8367 85.2893 92.483 83.3498 92.5384C69.9643 92.912 56.579 92.8328 43.1935 92.3006C41.254 92.2214 39.5923 90.5744 39.499 88.6348C38.8337 74.4681 38.8337 60.3016 39.499 46.1348C39.566 44.7155 40.4918 43.398 41.8282 42.7956C43.1671 42.1931 44.6599 42.43 45.6287 43.4077C48.6151 46.418 51.6818 49.493 54.7962 52.6053C57.9965 49.4206 61.1766 46.2273 64.304 43.0523C65.6857 41.6492 67.8885 41.6492 69.2702 43.0523C72.3976 46.2272 75.5777 49.4206 78.778 52.6053C79.5499 51.8342 80.3187 51.0653 81.0841 50.2992C82.0868 49.3128 83.5932 49.0491 84.9235 49.6272C85.384 49.827 85.7932 50.1141 86.1345 50.4631C86.7815 51.1273 87.179 52.0167 87.2007 52.9581Z" fill="url(#paint7_linear)"/>
<path d="M81.3902 60.221C80.6945 60.9096 79.7791 61.2519 78.8619 61.2478C77.2719 62.8875 75.6745 64.5349 74.0742 66.1861C75.6767 67.8393 77.2778 69.4889 78.8728 71.1316C81.7008 71.1235 84.5286 71.1124 87.3566 71.0986C87.3895 65.5452 87.3486 59.9919 87.2334 54.4385C85.3037 56.348 83.3534 58.2777 81.3902 60.221Z" fill="#BE4FFE"/>
<path d="M76.3205 60.1928C73.1263 57.0251 69.9377 53.8461 66.7873 50.6831C63.6368 53.8461 60.4482 57.0251 57.2538 60.1928C55.8446 61.5911 53.5766 61.5976 52.1846 60.2208C50.2213 58.2775 48.271 56.3478 46.3412 54.4383C46.2262 59.9917 46.1851 65.545 46.218 71.0984C57.1029 71.1517 67.9876 71.1626 78.8724 71.1314C78.8838 67.8369 78.8802 64.5422 78.8615 61.2476C77.9446 61.2431 77.0255 60.8919 76.3205 60.1928Z" fill="url(#paint8_linear)"/>
<path d="M81.3902 60.221C80.6945 60.9096 79.7791 61.2519 78.8619 61.2478C77.2719 62.8875 75.6745 64.5349 74.0742 66.1861C75.6767 67.8393 77.2778 69.4889 78.8728 71.1316C81.7008 71.1235 84.5286 71.1124 87.3566 71.0986C87.3895 65.5452 87.3486 59.9919 87.2334 54.4385C85.3037 56.348 83.3534 58.2777 81.3902 60.221Z" fill="#BE4FFE"/>
<path d="M76.3205 60.1928C73.1263 57.0251 69.9377 53.8461 66.7873 50.6831C63.6368 53.8461 60.4482 57.0251 57.2538 60.1928C55.8446 61.5911 53.5766 61.5976 52.1846 60.2208C50.2213 58.2775 48.271 56.3478 46.3412 54.4383C46.2262 59.9917 46.1851 65.545 46.218 71.0984C57.1029 71.1517 67.9876 71.1626 78.8724 71.1314C78.8838 67.8369 78.8802 64.5422 78.8615 61.2476C77.9446 61.2431 77.0255 60.8919 76.3205 60.1928Z" fill="url(#paint9_linear)"/>
<defs>
<filter id="filter0_d" x="0" y="0" width="135" height="135" filterUnits="userSpaceOnUse" color-interpolation-filters="sRGB">
<feFlood flood-opacity="0" result="BackgroundImageFix"/>
<feColorMatrix in="SourceAlpha" type="matrix" values="0 0 0 0 0 0 0 0 0 0 0 0 0 0 0 0 0 0 127 0" result="hardAlpha"/>
<feOffset/>
<feGaussianBlur stdDeviation="5.5"/>
<feColorMatrix type="matrix" values="0 0 0 0 0.937255 0 0 0 0 0.32549 0 0 0 0 1 0 0 0 1 0"/>
<feBlend mode="normal" in2="BackgroundImageFix" result="effect1_dropShadow"/>
<feBlend mode="normal" in="SourceGraphic" in2="effect1_dropShadow" result="shape"/>
</filter>
<linearGradient id="paint0_linear" x1="38.7156" y1="95.2844" x2="95.2842" y2="38.7158" gradientUnits="userSpaceOnUse">
<stop stop-color="#00718A"/>
<stop offset="0.0001" stop-color="#BCBCBC"/>
<stop offset="1" stop-color="#B9B9B9"/>
</linearGradient>
<radialGradient id="paint1_radial" cx="0" cy="0" r="1" gradientUnits="userSpaceOnUse" gradientTransform="translate(36.5 107) rotate(-50.9469) scale(136.499)">
<stop stop-color="#969696" stop-opacity="0.8"/>
<stop offset="0.109" stop-color="#CDCDCD" stop-opacity="0.713"/>
<stop offset="0.338542" stop-color="#E3E3E3" stop-opacity="0.541358"/>
<stop offset="0.6028" stop-color="white" stop-opacity="0.318"/>
<stop offset="0.9518" stop-color="#E6E6E6" stop-opacity="0.039"/>
<stop offset="1" stop-color="#33FFFF" stop-opacity="0"/>
<stop offset="1" stop-color="#F4F4F4" stop-opacity="0"/>
</radialGradient>
<linearGradient id="paint2_linear" x1="38.7156" y1="95.2842" x2="95.2842" y2="38.7155" gradientUnits="userSpaceOnUse">
<stop stop-color="#364AFF"/>
<stop offset="1" stop-color="#FC54FF"/>
</linearGradient>
<radialGradient id="paint3_radial" cx="0" cy="0" r="1" gradientUnits="userSpaceOnUse" gradientTransform="translate(67.0002 67) scale(40)">
<stop offset="0.095" stop-color="#8D00DB" stop-opacity="0.66"/>
<stop offset="0.2822" stop-color="#9F0DE1" stop-opacity="0.523"/>
<stop offset="0.6541" stop-color="#CC30F0" stop-opacity="0.252"/>
<stop offset="1" stop-color="#FC54FF" stop-opacity="0"/>
</radialGradient>
<linearGradient id="paint4_linear" x1="61.1141" y1="162.176" x2="132.615" y2="141.956" gradientUnits="userSpaceOnUse">
<stop stop-color="#8569F9"/>
<stop offset="1" stop-color="white"/>
</linearGradient>
<linearGradient id="paint5_linear" x1="-32.5998" y1="163.377" x2="105.83" y2="24.9475" gradientUnits="userSpaceOnUse">
<stop stop-color="#8569F9"/>
<stop offset="1" stop-color="white"/>
</linearGradient>
<linearGradient id="paint6_linear" x1="84.5" y1="90" x2="75" y2="59.5" gradientUnits="userSpaceOnUse">
<stop stop-color="#D5CCFE"/>
<stop offset="1" stop-color="#E4DDFE"/>
</linearGradient>
<linearGradient id="paint7_linear" x1="-32.5998" y1="163.377" x2="124.5" y2="22.5" gradientUnits="userSpaceOnUse">
<stop stop-color="#8569F9"/>
<stop offset="1" stop-color="white"/>
</linearGradient>
<linearGradient id="paint8_linear" x1="36.8193" y1="88.5725" x2="84.4849" y2="40.9068" gradientUnits="userSpaceOnUse">
<stop stop-color="#F654FF"/>
<stop offset="1" stop-color="#594BFF"/>
</linearGradient>
<linearGradient id="paint9_linear" x1="36.8193" y1="88.5725" x2="84.4849" y2="40.9068" gradientUnits="userSpaceOnUse">
<stop stop-color="#F654FF"/>
<stop offset="1" stop-color="#594BFF"/>
</linearGradient>
</defs>
</svg>
