<svg width="122" height="122" viewBox="0 0 122 122" fill="none" xmlns="http://www.w3.org/2000/svg">
<path d="M61 101C83.0914 101 101 83.0914 101 61C101 38.9086 83.0914 21 61 21C38.9086 21 21 38.9086 21 61C21 83.0914 38.9086 101 61 101Z" fill="url(#paint0_linear)"/>
<path d="M61 101C83.0914 101 101 83.0914 101 61C101 38.9086 83.0914 21 61 21C38.9086 21 21 38.9086 21 61C21 83.0914 38.9086 101 61 101Z" fill="url(#paint1_radial)"/>
<path d="M71.1143 84.4256C67.6386 86.5039 64.1899 88.566 60.788 90.5868C57.3862 88.566 53.9375 86.5039 50.4619 84.4256C45.3913 81.3937 40.2633 78.3275 35.1392 75.3049C34.9523 65.6619 34.9523 56.0187 35.1392 46.3757C40.2552 43.3579 45.3755 40.2962 50.4385 37.2688C53.9221 35.1858 57.3787 33.1189 60.788 31.0938C64.1899 33.1146 67.6385 35.1767 71.1142 37.2549C76.1847 40.2868 81.3128 43.3531 86.4369 46.3757C86.6239 56.0187 86.6239 65.6619 86.4369 75.3049C81.3128 78.3275 76.1848 81.3937 71.1143 84.4256Z" stroke="white" stroke-width="8"/>
<circle cx="61" cy="61" r="49.5" stroke="white"/>
<g filter="url(#filter0_d)">
<circle cx="61" cy="61" r="49.5" stroke="#D95CF9"/>
</g>
<path d="M61 101C83.0914 101 101 83.0914 101 61C101 38.9086 83.0914 21 61 21C38.9086 21 21 38.9086 21 61C21 83.0914 38.9086 101 61 101Z" fill="url(#paint2_linear)"/>
<path d="M61 101C83.0914 101 101 83.0914 101 61C101 38.9086 83.0914 21 61 21C38.9086 21 21 38.9086 21 61C21 83.0914 38.9086 101 61 101Z" fill="url(#paint3_radial)"/>
<path d="M85.7443 36.7958C84.407 36.1934 82.9143 36.4303 81.9452 37.4078C79.6988 39.6722 77.4073 41.9733 75.084 44.2993C76.181 58.4136 76.9938 72.4962 77.3495 86.5387C79.6932 86.4733 82.037 86.394 84.3807 86.3009C86.3199 86.2215 87.9818 84.5747 88.0751 82.6351C88.7404 68.4684 88.7404 54.3018 88.0751 40.1351C88.0081 38.7159 87.0824 37.3984 85.7443 36.7958Z" fill="url(#paint4_linear)"/>
<path d="M81.2007 46.9581C81.4771 58.9303 81.4095 70.9025 80.9977 82.8747C80.9277 84.8367 79.2893 86.483 77.3498 86.5384C63.9643 86.912 50.579 86.8328 37.1935 86.3006C35.254 86.2214 33.5923 84.5744 33.499 82.6348C32.8337 68.4681 32.8337 54.3016 33.499 40.1348C33.566 38.7155 34.4918 37.398 35.8282 36.7956C37.1671 36.1931 38.6599 36.43 39.6287 37.4077C42.6151 40.418 45.6818 43.493 48.7962 46.6053C51.9965 43.4206 55.1766 40.2273 58.304 37.0523C59.6857 35.6492 61.8885 35.6492 63.2702 37.0523C66.3976 40.2272 69.5777 43.4206 72.778 46.6053C73.5499 45.8342 74.3187 45.0653 75.0841 44.2992C76.0868 43.3128 77.5932 43.0491 78.9235 43.6272C79.384 43.827 79.7932 44.1141 80.1345 44.4631C80.7815 45.1273 81.179 46.0167 81.2007 46.9581Z" fill="url(#paint5_linear)"/>
<path d="M75.3902 54.221C74.6945 54.9096 73.7791 55.2519 72.8619 55.2478C71.2719 56.8875 69.6745 58.5349 68.0742 60.1861C69.6767 61.8393 71.2778 63.4889 72.8728 65.1316C75.7008 65.1235 78.5286 65.1124 81.3566 65.0986C81.3895 59.5452 81.3486 53.9919 81.2334 48.4385C79.3037 50.348 77.3534 52.2777 75.3902 54.221Z" fill="#BE4FFE"/>
<path d="M70.3205 54.1928C67.1263 51.0251 63.9377 47.8461 60.7873 44.6831C57.6368 47.8461 54.4482 51.0251 51.2538 54.1928C49.8446 55.5911 47.5766 55.5976 46.1846 54.2208C44.2213 52.2775 42.271 50.3478 40.3412 48.4383C40.2262 53.9917 40.1851 59.545 40.218 65.0984C51.1029 65.1517 61.9876 65.1626 72.8724 65.1314C72.8838 61.8369 72.8802 58.5422 72.8615 55.2476C71.9446 55.2431 71.0255 54.8919 70.3205 54.1928Z" fill="url(#paint6_linear)"/>
<defs>
<filter id="filter0_d" x="0" y="0" width="122" height="122" filterUnits="userSpaceOnUse" color-interpolation-filters="sRGB">
<feFlood flood-opacity="0" result="BackgroundImageFix"/>
<feColorMatrix in="SourceAlpha" type="matrix" values="0 0 0 0 0 0 0 0 0 0 0 0 0 0 0 0 0 0 127 0" result="hardAlpha"/>
<feOffset/>
<feGaussianBlur stdDeviation="5.5"/>
<feColorMatrix type="matrix" values="0 0 0 0 0.937255 0 0 0 0 0.32549 0 0 0 0 1 0 0 0 1 0"/>
<feBlend mode="normal" in2="BackgroundImageFix" result="effect1_dropShadow"/>
<feBlend mode="normal" in="SourceGraphic" in2="effect1_dropShadow" result="shape"/>
</filter>
<linearGradient id="paint0_linear" x1="32.7156" y1="89.2844" x2="89.2842" y2="32.7158" gradientUnits="userSpaceOnUse">
<stop stop-color="#00718A"/>
<stop offset="0.0001" stop-color="#BCBCBC"/>
<stop offset="1" stop-color="#B9B9B9"/>
</linearGradient>
<radialGradient id="paint1_radial" cx="0" cy="0" r="1" gradientUnits="userSpaceOnUse" gradientTransform="translate(30.5 101) rotate(-50.9469) scale(136.499)">
<stop stop-color="#969696" stop-opacity="0.8"/>
<stop offset="0.109" stop-color="#CDCDCD" stop-opacity="0.713"/>
<stop offset="0.338542" stop-color="#E3E3E3" stop-opacity="0.541358"/>
<stop offset="0.6028" stop-color="white" stop-opacity="0.318"/>
<stop offset="0.9518" stop-color="#E6E6E6" stop-opacity="0.039"/>
<stop offset="1" stop-color="#33FFFF" stop-opacity="0"/>
<stop offset="1" stop-color="#F4F4F4" stop-opacity="0"/>
</radialGradient>
<linearGradient id="paint2_linear" x1="32.7156" y1="89.2842" x2="89.2842" y2="32.7155" gradientUnits="userSpaceOnUse">
<stop stop-color="#364AFF"/>
<stop offset="1" stop-color="#FC54FF"/>
</linearGradient>
<radialGradient id="paint3_radial" cx="0" cy="0" r="1" gradientUnits="userSpaceOnUse" gradientTransform="translate(61.0002 61) scale(40)">
<stop offset="0.095" stop-color="#8D00DB" stop-opacity="0.66"/>
<stop offset="0.2822" stop-color="#9F0DE1" stop-opacity="0.523"/>
<stop offset="0.6541" stop-color="#CC30F0" stop-opacity="0.252"/>
<stop offset="1" stop-color="#FC54FF" stop-opacity="0"/>
</radialGradient>
<linearGradient id="paint4_linear" x1="78.5" y1="84" x2="69" y2="53.5" gradientUnits="userSpaceOnUse">
<stop stop-color="#D5CCFE"/>
<stop offset="1" stop-color="#E4DDFE"/>
</linearGradient>
<linearGradient id="paint5_linear" x1="-38.5998" y1="157.377" x2="118.5" y2="16.5" gradientUnits="userSpaceOnUse">
<stop stop-color="#8569F9"/>
<stop offset="1" stop-color="white"/>
</linearGradient>
<linearGradient id="paint6_linear" x1="30.8193" y1="82.5725" x2="78.4849" y2="34.9068" gradientUnits="userSpaceOnUse">
<stop stop-color="#F654FF"/>
<stop offset="1" stop-color="#594BFF"/>
</linearGradient>
</defs>
</svg>
