<svg width="135" height="135" viewBox="0 0 135 135" fill="none" xmlns="http://www.w3.org/2000/svg">
<g filter="url(#filter0_d_1998)">
<circle cx="67.5" cy="67.5" r="53.5" stroke="#FF9F6B" stroke-width="6"/>
</g>
<path d="M67 108C89.0914 108 107 90.0914 107 68C107 45.9086 89.0914 28 67 28C44.9086 28 27 45.9086 27 68C27 90.0914 44.9086 108 67 108Z" fill="url(#paint0_linear_1998)"/>
<path d="M67 108C89.0914 108 107 90.0914 107 68C107 45.9086 89.0914 28 67 28C44.9086 28 27 45.9086 27 68C27 90.0914 44.9086 108 67 108Z" fill="url(#paint1_radial_1998)"/>
<path d="M67.3478 93.1958C78.5857 93.1958 87.6957 84.0857 87.6957 72.8479C87.6957 61.6101 78.5857 42 67.3478 42C56.11 42 47 61.6101 47 72.8479C47 84.0857 56.11 93.1958 67.3478 93.1958Z" fill="url(#paint2_linear_1998)"/>
<defs>
<filter id="filter0_d_1998" x="0" y="0" width="135" height="135" filterUnits="userSpaceOnUse" color-interpolation-filters="sRGB">
<feFlood flood-opacity="0" result="BackgroundImageFix"/>
<feColorMatrix in="SourceAlpha" type="matrix" values="0 0 0 0 0 0 0 0 0 0 0 0 0 0 0 0 0 0 127 0" result="hardAlpha"/>
<feOffset/>
<feGaussianBlur stdDeviation="5.5"/>
<feColorMatrix type="matrix" values="0 0 0 0 1 0 0 0 0 0.666667 0 0 0 0 0.423529 0 0 0 1 0"/>
<feBlend mode="normal" in2="BackgroundImageFix" result="effect1_dropShadow_1998"/>
<feBlend mode="normal" in="SourceGraphic" in2="effect1_dropShadow_1998" result="shape"/>
</filter>
<linearGradient id="paint0_linear_1998" x1="38.7158" y1="96.2842" x2="95.2844" y2="39.7156" gradientUnits="userSpaceOnUse">
<stop stop-color="#FF4D5F"/>
<stop offset="1" stop-color="#FFFA78"/>
</linearGradient>
<radialGradient id="paint1_radial_1998" cx="0" cy="0" r="1" gradientUnits="userSpaceOnUse" gradientTransform="translate(67.0002 68) scale(40)">
<stop stop-color="#FF4C4C" stop-opacity="0.6"/>
<stop offset="0.139" stop-color="#FF5E51" stop-opacity="0.517"/>
<stop offset="0.415" stop-color="#FF8A5C" stop-opacity="0.351"/>
<stop offset="0.7983" stop-color="#FFD26E" stop-opacity="0.121"/>
<stop offset="1" stop-color="#FFFA78" stop-opacity="0"/>
</radialGradient>
<linearGradient id="paint2_linear_1998" x1="35.3673" y1="104.829" x2="86.1357" y2="54.0601" gradientUnits="userSpaceOnUse">
<stop stop-color="#FFCA71"/>
<stop offset="1" stop-color="white"/>
</linearGradient>
</defs>
</svg>
