<svg width="80" height="80" viewBox="0 0 80 80" fill="none" xmlns="http://www.w3.org/2000/svg">
<path d="M40 80C62.0914 80 80 62.0914 80 40C80 17.9086 62.0914 0 40 0C17.9086 0 0 17.9086 0 40C0 62.0914 17.9086 80 40 80Z" fill="url(#paint0_linear)"/>
<path d="M60.1188 16.2333C57.9343 16.1411 55.7497 16.0633 53.5652 16C54.7682 19.7338 55.9707 23.4566 57.1554 27.1633C57.3249 35.721 56.7782 44.2994 56.6087 52.8571C56.9315 57.1632 45.2029 60.2662 44 64C46.1845 63.9367 57.9343 63.859 60.1188 63.7667C61.926 63.6883 63.4681 62.1819 63.5483 60.4163C64.1505 46.8053 64.1505 33.1945 63.5483 19.5836C63.4681 17.8181 61.926 16.312 60.1188 16.2333Z" fill="url(#paint1_linear)"/>
<path d="M56.8063 19.522C56.7495 17.7505 55.2889 16.2597 53.5541 16.2061C42.2778 15.8686 31.0017 15.9456 19.7254 16.4374C17.9906 16.515 16.5105 18.0089 16.4335 19.7591C15.8555 33.2531 15.8555 46.7469 16.4335 60.2409C16.5105 61.9911 17.9906 63.4847 19.7254 63.5626C31.0017 64.0544 42.2778 64.1314 53.5541 63.7939C55.2889 63.7406 56.7495 62.2495 56.8061 60.4782C56.8858 57.8943 56.9505 55.3103 57 52.7264C52.8521 48.5664 48.6035 44.2939 44.3441 40C48.6035 35.7061 52.8521 31.4336 57 27.2736C56.9507 24.6898 56.8859 22.1057 56.8063 19.522ZM22.5698 27.2736C26.7177 31.4336 30.9663 35.7061 35.2256 40C30.9663 44.2939 26.7177 48.5664 22.5698 52.7264C22.4071 44.2421 22.4071 35.7579 22.5698 27.2736ZM52.3973 57.3708C43.9891 57.535 35.581 57.535 27.1727 57.3708C31.2955 53.1854 35.5295 48.8984 39.7851 44.6005C44.0405 48.8984 48.2746 53.1854 52.3973 57.3708ZM39.785 35.3995C35.5295 31.1016 31.2954 26.8146 27.1726 22.6292C35.5808 22.465 43.989 22.465 52.3972 22.6292C48.2746 26.8146 44.0405 31.1016 39.785 35.3995Z" fill="url(#paint2_linear)"/>
<defs>
<linearGradient id="paint0_linear" x1="11.7158" y1="68.2842" x2="68.2842" y2="11.7158" gradientUnits="userSpaceOnUse">
<stop stop-color="#00C4A0"/>
<stop offset="1" stop-color="#00F0B6"/>
</linearGradient>
<linearGradient id="paint1_linear" x1="60.087" y1="64.4285" x2="61.7411" y2="12.5548" gradientUnits="userSpaceOnUse">
<stop stop-color="#D5FFF6"/>
<stop offset="0.0001" stop-color="#A4FFEB"/>
<stop offset="1" stop-color="#D6FFF6"/>
</linearGradient>
<linearGradient id="paint2_linear" x1="4.13455" y1="72.9187" x2="74.5398" y2="3.14422" gradientUnits="userSpaceOnUse">
<stop stop-color="#56FFDA"/>
<stop offset="1" stop-color="white"/>
</linearGradient>
</defs>
</svg>
