<svg width="80" height="80" viewBox="0 0 80 80" fill="none" xmlns="http://www.w3.org/2000/svg">
<path d="M40 80C62.0914 80 80 62.0914 80 40C80 17.9086 62.0914 0 40 0C17.9086 0 0 17.9086 0 40C0 62.0914 17.9086 80 40 80Z" fill="url(#paint0_linear)"/>
<path d="M40 80C62.0914 80 80 62.0914 80 40C80 17.9086 62.0914 0 40 0C17.9086 0 0 17.9086 0 40C0 62.0914 17.9086 80 40 80Z" fill="url(#paint1_radial)"/>
<path d="M50.1153 63.4251C46.6396 65.5034 43.1909 67.5655 39.789 69.5863C36.3871 67.5655 32.9385 65.5034 29.4628 63.4252C24.3923 60.3933 19.2643 57.327 14.1402 54.3044C13.9533 44.6614 13.9533 35.0182 14.1402 25.3752C19.2562 22.3574 24.3765 19.2957 29.4395 16.2683C32.9231 14.1853 36.3796 12.1184 39.789 10.0933C43.1909 12.1141 46.6395 14.1762 50.1151 16.2544C55.1857 19.2863 60.3137 22.3526 65.4379 25.3752C65.6249 35.0182 65.6249 44.6614 65.4379 54.3044C60.3138 57.327 55.1858 60.3932 50.1153 63.4251Z" stroke="#B3F9F9" stroke-width="8"/>
<defs>
<linearGradient id="paint0_linear" x1="11.7158" y1="68.2842" x2="68.2844" y2="11.7156" gradientUnits="userSpaceOnUse">
<stop stop-color="#560DFF"/>
<stop offset="1" stop-color="#73ECFF"/>
</linearGradient>
<radialGradient id="paint1_radial" cx="0" cy="0" r="1" gradientUnits="userSpaceOnUse" gradientTransform="translate(-6.17188 46.3281) rotate(-3.97715) scale(86.6692)">
<stop stop-color="#364AFF"/>
<stop offset="0.1921" stop-color="#4E80F6" stop-opacity="0.808"/>
<stop offset="0.3799" stop-color="#62AEEE" stop-opacity="0.62"/>
<stop offset="0.5586" stop-color="#71D1E8" stop-opacity="0.441"/>
<stop offset="0.726" stop-color="#7CEAE4" stop-opacity="0.274"/>
<stop offset="0.8778" stop-color="#83FAE1" stop-opacity="0.122"/>
<stop offset="1" stop-color="#85FFE0" stop-opacity="0"/>
</radialGradient>
</defs>
</svg>
