<svg width="114" height="114" viewBox="0 0 114 114" fill="none" xmlns="http://www.w3.org/2000/svg">
<path d="M57 97C79.0914 97 97 79.0914 97 57C97 34.9086 79.0914 17 57 17C34.9086 17 17 34.9086 17 57C17 79.0914 34.9086 97 57 97Z" fill="url(#paint0_linear)"/>
<path d="M57 97C79.0914 97 97 79.0914 97 57C97 34.9086 79.0914 17 57 17C34.9086 17 17 34.9086 17 57C17 79.0914 34.9086 97 57 97Z" fill="url(#paint1_radial)"/>
<circle cx="57" cy="57" r="49.5" stroke="#689EF4"/>
<circle cx="57" cy="57" r="55.5" stroke="#689EF4" stroke-width="3"/>
<path d="M67.1153 80.4251C63.6396 82.5034 60.1909 84.5655 56.789 86.5863C53.3871 84.5655 49.9385 82.5034 46.4628 80.4252C41.3923 77.3933 36.2643 74.327 31.1402 71.3044C30.9533 61.6614 30.9533 52.0182 31.1402 42.3752C36.2562 39.3574 41.3765 36.2957 46.4395 33.2683C49.9231 31.1853 53.3796 29.1184 56.789 27.0933C60.1909 29.1141 63.6395 31.1762 67.1151 33.2544C72.1857 36.2863 77.3137 39.3526 82.4379 42.3752C82.6249 52.0182 82.6249 61.6614 82.4379 71.3044C77.3138 74.327 72.1858 77.3932 67.1153 80.4251Z" stroke="#B3F9F9" stroke-width="8"/>
<defs>
<linearGradient id="paint0_linear" x1="28.7158" y1="85.2842" x2="85.2844" y2="28.7156" gradientUnits="userSpaceOnUse">
<stop stop-color="#560DFF"/>
<stop offset="1" stop-color="#73ECFF"/>
</linearGradient>
<radialGradient id="paint1_radial" cx="0" cy="0" r="1" gradientUnits="userSpaceOnUse" gradientTransform="translate(10.8281 63.3281) rotate(-3.97715) scale(86.6692)">
<stop stop-color="#364AFF"/>
<stop offset="0.1921" stop-color="#4E80F6" stop-opacity="0.808"/>
<stop offset="0.3799" stop-color="#62AEEE" stop-opacity="0.62"/>
<stop offset="0.5586" stop-color="#71D1E8" stop-opacity="0.441"/>
<stop offset="0.726" stop-color="#7CEAE4" stop-opacity="0.274"/>
<stop offset="0.8778" stop-color="#83FAE1" stop-opacity="0.122"/>
<stop offset="1" stop-color="#85FFE0" stop-opacity="0"/>
</radialGradient>
</defs>
</svg>
