<svg width="84" height="84" viewBox="0 0 84 84" fill="none" xmlns="http://www.w3.org/2000/svg">
<path d="M42 82C64.0914 82 82 64.0914 82 42C82 19.9086 64.0914 2 42 2C19.9086 2 2 19.9086 2 42C2 64.0914 19.9086 82 42 82Z" fill="url(#paint0_linear)"/>
<path d="M42.0012 74.9602C60.2046 74.9602 74.9613 60.2035 74.9613 42.0001C74.9613 23.7967 60.2046 9.03992 42.0012 9.03992C23.7978 9.03992 9.04102 23.7967 9.04102 42.0001C9.04102 60.2035 23.7978 74.9602 42.0012 74.9602Z" fill="url(#paint1_linear)"/>
<path d="M42.0002 67.3928C56.0242 67.3928 67.393 56.0241 67.393 42.0001C67.393 27.976 56.0242 16.6073 42.0002 16.6073C27.9762 16.6073 16.6074 27.976 16.6074 42.0001C16.6074 56.0241 27.9762 67.3928 42.0002 67.3928Z" fill="url(#paint2_linear)"/>
<path d="M42.0002 62.3479C53.238 62.3479 62.348 53.2379 62.348 42.0001C62.348 30.7623 53.238 21.6522 42.0002 21.6522C30.7624 21.6522 21.6523 30.7623 21.6523 42.0001C21.6523 53.2379 30.7624 62.3479 42.0002 62.3479Z" fill="url(#paint3_linear)"/>
<defs>
<linearGradient id="paint0_linear" x1="13.7158" y1="70.2842" x2="70.2842" y2="13.7158" gradientUnits="userSpaceOnUse">
<stop stop-color="#099931"/>
<stop offset="1" stop-color="#00F07D"/>
</linearGradient>
<linearGradient id="paint1_linear" x1="-4.28184" y1="88.2831" x2="69.501" y2="14.5004" gradientUnits="userSpaceOnUse">
<stop stop-color="#80FFE3"/>
<stop offset="1" stop-color="#D3FFF6"/>
</linearGradient>
<linearGradient id="paint2_linear" x1="7.54527" y1="76.4552" x2="62.8227" y2="21.1778" gradientUnits="userSpaceOnUse">
<stop stop-color="#03D767"/>
<stop offset="0.9999" stop-color="#08AB41"/>
<stop offset="1" stop-color="#FC54FF"/>
</linearGradient>
<linearGradient id="paint3_linear" x1="10.0197" y1="73.9808" x2="60.788" y2="23.2123" gradientUnits="userSpaceOnUse">
<stop stop-color="#7DFFE3"/>
<stop offset="1" stop-color="#D3FFF6"/>
</linearGradient>
</defs>
</svg>
