<svg width="120" height="120" viewBox="0 0 120 120" fill="none" xmlns="http://www.w3.org/2000/svg">
<g filter="url(#filter0_d)">
<circle cx="60" cy="60" r="49.5" stroke="#02E271"/>
</g>
<path d="M60 100C82.0914 100 100 82.0914 100 60C100 37.9086 82.0914 20 60 20C37.9086 20 20 37.9086 20 60C20 82.0914 37.9086 100 60 100Z" fill="url(#paint0_linear)"/>
<path d="M60.0012 92.9604C78.2046 92.9604 92.9613 78.2036 92.9613 60.0002C92.9613 41.7968 78.2046 27.04 60.0012 27.04C41.7978 27.04 27.041 41.7968 27.041 60.0002C27.041 78.2036 41.7978 92.9604 60.0012 92.9604Z" fill="url(#paint1_linear)"/>
<path d="M60.0002 85.393C74.0242 85.393 85.393 74.0242 85.393 60.0002C85.393 45.9762 74.0242 34.6074 60.0002 34.6074C45.9762 34.6074 34.6074 45.9762 34.6074 60.0002C34.6074 74.0242 45.9762 85.393 60.0002 85.393Z" fill="url(#paint2_linear)"/>
<path d="M60.0002 80.348C71.238 80.348 80.348 71.238 80.348 60.0002C80.348 48.7624 71.238 39.6523 60.0002 39.6523C48.7624 39.6523 39.6523 48.7624 39.6523 60.0002C39.6523 71.238 48.7624 80.348 60.0002 80.348Z" fill="url(#paint3_linear)"/>
<defs>
<filter id="filter0_d" x="0" y="0" width="120" height="120" filterUnits="userSpaceOnUse" color-interpolation-filters="sRGB">
<feFlood flood-opacity="0" result="BackgroundImageFix"/>
<feColorMatrix in="SourceAlpha" type="matrix" values="0 0 0 0 0 0 0 0 0 0 0 0 0 0 0 0 0 0 127 0" result="hardAlpha"/>
<feOffset/>
<feGaussianBlur stdDeviation="5"/>
<feColorMatrix type="matrix" values="0 0 0 0 0.0313726 0 0 0 0 0.666667 0 0 0 0 0.25098 0 0 0 1 0"/>
<feBlend mode="normal" in2="BackgroundImageFix" result="effect1_dropShadow"/>
<feBlend mode="normal" in="SourceGraphic" in2="effect1_dropShadow" result="shape"/>
</filter>
<linearGradient id="paint0_linear" x1="31.7158" y1="88.2842" x2="88.2842" y2="31.7158" gradientUnits="userSpaceOnUse">
<stop stop-color="#099931"/>
<stop offset="1" stop-color="#00F07D"/>
</linearGradient>
<linearGradient id="paint1_linear" x1="13.7182" y1="106.283" x2="87.501" y2="32.5005" gradientUnits="userSpaceOnUse">
<stop stop-color="#80FFE3"/>
<stop offset="1" stop-color="#D3FFF6"/>
</linearGradient>
<linearGradient id="paint2_linear" x1="25.5453" y1="94.4553" x2="80.8227" y2="39.1779" gradientUnits="userSpaceOnUse">
<stop stop-color="#03D767"/>
<stop offset="0.9999" stop-color="#08AB41"/>
<stop offset="1" stop-color="#FC54FF"/>
</linearGradient>
<linearGradient id="paint3_linear" x1="28.0197" y1="91.9809" x2="78.788" y2="41.2124" gradientUnits="userSpaceOnUse">
<stop stop-color="#7DFFE3"/>
<stop offset="1" stop-color="#D3FFF6"/>
</linearGradient>
</defs>
</svg>
