<svg width="80" height="80" viewBox="0 0 80 80" fill="none" xmlns="http://www.w3.org/2000/svg">
<path d="M40 80C62.0914 80 80 62.0914 80 40C80 17.9086 62.0914 0 40 0C17.9086 0 0 17.9086 0 40C0 62.0914 17.9086 80 40 80Z" fill="url(#paint0_linear)"/>
<g clip-path="url(#clip0)">
<path d="M71.6841 35.4353L61.2267 18.6337C60.8447 18.0202 60.1733 17.6472 59.4509 17.6472H20.5493C19.8271 17.6472 19.1557 18.0202 18.7736 18.6337L8.31619 35.4353C7.81419 36.2419 7.91807 37.2849 8.56994 37.9758L38.4782 69.6959C38.8734 70.1149 39.4242 70.3527 40.0001 70.3527C40.5759 70.3527 41.1267 70.1149 41.5219 69.6953L71.4302 37.9758C72.0814 37.2842 72.1861 36.2419 71.6841 35.4353ZM40.0002 65.2126L12.7188 36.2782L21.7115 21.8302H58.2894L67.2815 36.2782L40.0002 65.2126Z" fill="#FFCDEF"/>
<path d="M69.9083 34.4489H10.0918V38.6318H69.9083V34.4489Z" fill="#FFCDEF"/>
<path d="M29.4849 36.3403L32.71 20.1473L28.6072 19.3302L25.2608 36.1318C25.1821 36.5292 25.2197 36.9406 25.3703 37.3171L38.0587 69.0379L41.9426 67.4847L29.4849 36.3403Z" fill="#FFCDEF"/>
<path d="M54.8733 35.9638L51.3874 19.6501L47.2972 20.5244L50.6498 36.2126L38.0605 67.4804L41.9403 69.042L54.7688 37.1824C54.9234 36.7955 54.9604 36.3709 54.8733 35.9638Z" fill="#FFCDEF"/>
</g>
<defs>
<linearGradient id="paint0_linear" x1="11.7158" y1="68.2842" x2="68.2842" y2="11.7158" gradientUnits="userSpaceOnUse">
<stop stop-color="#C40046"/>
<stop offset="1" stop-color="#F000AD"/>
</linearGradient>
<clipPath id="clip0">
<rect width="64" height="64" fill="white" transform="translate(8 12)"/>
</clipPath>
</defs>
</svg>
