<svg width="80" height="80" viewBox="0 0 80 80" fill="none" xmlns="http://www.w3.org/2000/svg">
<path d="M40 80C62.0914 80 80 62.0914 80 40C80 17.9086 62.0914 0 40 0C17.9086 0 0 17.9086 0 40C0 62.0914 17.9086 80 40 80Z" fill="url(#paint0_linear)"/>
<path d="M40 80C62.0914 80 80 62.0914 80 40C80 17.9086 62.0914 0 40 0C17.9086 0 0 17.9086 0 40C0 62.0914 17.9086 80 40 80Z" fill="url(#paint1_radial)"/>
<path d="M40.5 72C39.7152 72.0001 38.9299 71.6914 38.328 71.0755C29.0616 61.593 19.4069 51.9384 9.92435 42.6719C8.69188 41.468 8.69188 39.532 9.92435 38.328C19.4069 29.0616 29.0616 19.4069 38.328 9.92445C39.532 8.69185 41.468 8.69185 42.672 9.92445C51.9384 19.4069 61.593 29.0616 71.0756 38.328C72.3081 39.532 72.3081 41.468 71.0756 42.6719C61.5931 51.9384 51.9384 61.5929 42.672 71.0755C42.0701 71.6914 41.2848 72 40.5 72Z" fill="url(#paint2_linear)"/>
<path d="M17 41C24.8333 48.559 32.7768 56.3333 40.5 64C48.2232 56.3333 56.1667 48.559 64 41C48.3333 41 32.6667 41 17 41Z" fill="url(#paint3_linear)"/>
<path d="M40.5 17C32.7768 25.0174 24.8333 33.1476 17 41.0523C30.0365 54.3159 50.9635 54.3159 64 41.0523C64.0023 41.1545 40.4002 16.9978 40.5 17Z" fill="url(#paint4_linear)"/>
<defs>
<linearGradient id="paint0_linear" x1="11.7158" y1="68.2842" x2="68.2844" y2="11.7156" gradientUnits="userSpaceOnUse">
<stop stop-color="#560DFF"/>
<stop offset="1" stop-color="#7E73FF"/>
</linearGradient>
<radialGradient id="paint1_radial" cx="0" cy="0" r="1" gradientUnits="userSpaceOnUse" gradientTransform="translate(40.0002 40) scale(40)">
<stop stop-color="#364AFF"/>
<stop offset="0.1101" stop-color="#3951FE" stop-opacity="0.89"/>
<stop offset="0.2743" stop-color="#4266FA" stop-opacity="0.726"/>
<stop offset="0.4723" stop-color="#5187F5" stop-opacity="0.528"/>
<stop offset="0.6964" stop-color="#65B5ED" stop-opacity="0.304"/>
<stop offset="0.9398" stop-color="#7EEFE3" stop-opacity="0.06"/>
<stop offset="1" stop-color="#85FFE0" stop-opacity="0"/>
</radialGradient>
<linearGradient id="paint2_linear" x1="-4.30741" y1="85.3073" x2="77.0588" y2="3.94078" gradientUnits="userSpaceOnUse">
<stop stop-color="#85FFE0"/>
<stop offset="0.1444" stop-color="#8CFFE2"/>
<stop offset="0.3596" stop-color="#A1FFE7"/>
<stop offset="0.619" stop-color="#C2FFEF"/>
<stop offset="0.9104" stop-color="#EFFFFB"/>
<stop offset="1" stop-color="white"/>
</linearGradient>
<linearGradient id="paint3_linear" x1="16.2363" y1="64.7474" x2="58.2474" y2="21.8232" gradientUnits="userSpaceOnUse">
<stop stop-color="#560DFF"/>
<stop offset="1" stop-color="#73ECFF"/>
</linearGradient>
<linearGradient id="paint4_linear" x1="3.98093" y1="78.4296" x2="61.7104" y2="22.0257" gradientUnits="userSpaceOnUse">
<stop offset="0.0208333" stop-color="#767CFA"/>
<stop offset="1" stop-color="#6058FF"/>
</linearGradient>
</defs>
</svg>
