<svg width="120" height="120" viewBox="0 0 120 120" fill="none" xmlns="http://www.w3.org/2000/svg">
<g filter="url(#filter0_d)">
<circle cx="60" cy="60" r="49.5" stroke="#5D31FC"/>
</g>
<path d="M60 100C82.0914 100 100 82.0914 100 60C100 37.9086 82.0914 20 60 20C37.9086 20 20 37.9086 20 60C20 82.0914 37.9086 100 60 100Z" fill="url(#paint0_linear)"/>
<path d="M60 100C82.0914 100 100 82.0914 100 60C100 37.9086 82.0914 20 60 20C37.9086 20 20 37.9086 20 60C20 82.0914 37.9086 100 60 100Z" fill="url(#paint1_radial)"/>
<path d="M60 96.1057C59.1004 96.1059 58.2003 95.7519 57.5104 95.046C46.8892 84.1771 35.8229 73.1109 24.954 62.4896C23.5414 61.1096 23.5414 58.8905 24.954 57.5105C35.8229 46.8893 46.8892 35.823 57.5104 24.9541C58.8904 23.5413 61.1095 23.5413 62.4895 24.9541C73.1107 35.823 84.1768 46.8893 95.0459 57.5105C96.4586 58.8905 96.4586 61.1096 95.0459 62.4896C84.177 73.1109 73.1107 84.1769 62.4895 95.046C61.7997 95.7519 60.8995 96.1057 60 96.1057Z" fill="url(#paint2_linear)"/>
<path d="M32.5947 60C41.73 69.007 50.9938 78.2706 60.0007 87.4059C69.0075 78.2706 78.2713 69.007 87.4066 60C69.136 60 50.8654 60 32.5947 60Z" fill="url(#paint3_linear)"/>
<path d="M60.0007 32.5942C50.9938 41.7296 41.73 50.9933 32.5947 60.0002C47.798 75.1132 72.2033 75.1132 87.4066 60.0002C87.4093 60.1166 59.8843 32.5917 60.0007 32.5942Z" fill="url(#paint4_linear)"/>
<defs>
<filter id="filter0_d" x="0" y="0" width="120" height="120" filterUnits="userSpaceOnUse" color-interpolation-filters="sRGB">
<feFlood flood-opacity="0" result="BackgroundImageFix"/>
<feColorMatrix in="SourceAlpha" type="matrix" values="0 0 0 0 0 0 0 0 0 0 0 0 0 0 0 0 0 0 127 0" result="hardAlpha"/>
<feOffset/>
<feGaussianBlur stdDeviation="5"/>
<feColorMatrix type="matrix" values="0 0 0 0 0.431373 0 0 0 0 0.403922 0 0 0 0 0.980392 0 0 0 1 0"/>
<feBlend mode="normal" in2="BackgroundImageFix" result="effect1_dropShadow"/>
<feBlend mode="normal" in="SourceGraphic" in2="effect1_dropShadow" result="shape"/>
</filter>
<linearGradient id="paint0_linear" x1="31.7158" y1="88.2842" x2="88.2844" y2="31.7156" gradientUnits="userSpaceOnUse">
<stop stop-color="#560DFF"/>
<stop offset="1" stop-color="#7E73FF"/>
</linearGradient>
<radialGradient id="paint1_radial" cx="0" cy="0" r="1" gradientUnits="userSpaceOnUse" gradientTransform="translate(60.0002 60) scale(40)">
<stop stop-color="#364AFF"/>
<stop offset="0.1101" stop-color="#3951FE" stop-opacity="0.89"/>
<stop offset="0.2743" stop-color="#4266FA" stop-opacity="0.726"/>
<stop offset="0.4723" stop-color="#5187F5" stop-opacity="0.528"/>
<stop offset="0.6964" stop-color="#65B5ED" stop-opacity="0.304"/>
<stop offset="0.9398" stop-color="#7EEFE3" stop-opacity="0.06"/>
<stop offset="1" stop-color="#85FFE0" stop-opacity="0"/>
</radialGradient>
<linearGradient id="paint2_linear" x1="8.64152" y1="111.359" x2="101.904" y2="18.096" gradientUnits="userSpaceOnUse">
<stop stop-color="#85FFE0"/>
<stop offset="0.1444" stop-color="#8CFFE2"/>
<stop offset="0.3596" stop-color="#A1FFE7"/>
<stop offset="0.619" stop-color="#C2FFEF"/>
<stop offset="0.9104" stop-color="#EFFFFB"/>
<stop offset="1" stop-color="white"/>
</linearGradient>
<linearGradient id="paint3_linear" x1="31.7041" y1="88.2966" x2="81.7746" y2="38.2262" gradientUnits="userSpaceOnUse">
<stop stop-color="#560DFF"/>
<stop offset="1" stop-color="#73ECFF"/>
</linearGradient>
<linearGradient id="paint4_linear" x1="17.4118" y1="102.589" x2="83.2083" y2="36.7925" gradientUnits="userSpaceOnUse">
<stop offset="0.0208333" stop-color="#767CFA"/>
<stop offset="1" stop-color="#6058FF"/>
</linearGradient>
</defs>
</svg>
