<svg width="134" height="134" viewBox="0 0 134 134" fill="none" xmlns="http://www.w3.org/2000/svg">
<g filter="url(#filter0_d)">
<circle cx="67" cy="67" r="54" stroke="#5D31FC" stroke-width="6"/>
</g>
<path d="M67 107C89.0914 107 107 89.0914 107 67C107 44.9086 89.0914 27 67 27C44.9086 27 27 44.9086 27 67C27 89.0914 44.9086 107 67 107Z" fill="url(#paint0_linear)"/>
<path d="M67 107C89.0914 107 107 89.0914 107 67C107 44.9086 89.0914 27 67 27C44.9086 27 27 44.9086 27 67C27 89.0914 44.9086 107 67 107Z" fill="url(#paint1_radial)"/>
<path d="M67 103.106C66.1004 103.106 65.2003 102.752 64.5104 102.046C53.8892 91.1771 42.8229 80.1109 31.954 69.4896C30.5414 68.1096 30.5414 65.8905 31.954 64.5105C42.8229 53.8893 53.8892 42.823 64.5104 31.9541C65.8904 30.5413 68.1095 30.5413 69.4895 31.9541C80.1107 42.823 91.1768 53.8893 102.046 64.5105C103.459 65.8905 103.459 68.1096 102.046 69.4896C91.177 80.1109 80.1107 91.1769 69.4895 102.046C68.7997 102.752 67.8995 103.106 67 103.106Z" fill="url(#paint2_linear)"/>
<path d="M39.5947 67C48.73 76.007 57.9938 85.2706 67.0007 94.4059C76.0075 85.2706 85.2713 76.007 94.4066 67C76.136 67 57.8654 67 39.5947 67Z" fill="url(#paint3_linear)"/>
<path d="M67.0007 39.5942C57.9938 48.7296 48.73 57.9933 39.5947 67.0002C54.798 82.1132 79.2033 82.1132 94.4066 67.0002C94.4093 67.1166 66.8843 39.5917 67.0007 39.5942Z" fill="url(#paint4_linear)"/>
<defs>
<filter id="filter0_d" x="0" y="0" width="134" height="134" filterUnits="userSpaceOnUse" color-interpolation-filters="sRGB">
<feFlood flood-opacity="0" result="BackgroundImageFix"/>
<feColorMatrix in="SourceAlpha" type="matrix" values="0 0 0 0 0 0 0 0 0 0 0 0 0 0 0 0 0 0 127 0" result="hardAlpha"/>
<feOffset/>
<feGaussianBlur stdDeviation="5"/>
<feColorMatrix type="matrix" values="0 0 0 0 0.431373 0 0 0 0 0.403922 0 0 0 0 0.980392 0 0 0 1 0"/>
<feBlend mode="normal" in2="BackgroundImageFix" result="effect1_dropShadow"/>
<feBlend mode="normal" in="SourceGraphic" in2="effect1_dropShadow" result="shape"/>
</filter>
<linearGradient id="paint0_linear" x1="38.7158" y1="95.2842" x2="95.2844" y2="38.7156" gradientUnits="userSpaceOnUse">
<stop stop-color="#560DFF"/>
<stop offset="1" stop-color="#7E73FF"/>
</linearGradient>
<radialGradient id="paint1_radial" cx="0" cy="0" r="1" gradientUnits="userSpaceOnUse" gradientTransform="translate(67.0002 67) scale(40)">
<stop stop-color="#364AFF"/>
<stop offset="0.1101" stop-color="#3951FE" stop-opacity="0.89"/>
<stop offset="0.2743" stop-color="#4266FA" stop-opacity="0.726"/>
<stop offset="0.4723" stop-color="#5187F5" stop-opacity="0.528"/>
<stop offset="0.6964" stop-color="#65B5ED" stop-opacity="0.304"/>
<stop offset="0.9398" stop-color="#7EEFE3" stop-opacity="0.06"/>
<stop offset="1" stop-color="#85FFE0" stop-opacity="0"/>
</radialGradient>
<linearGradient id="paint2_linear" x1="15.6415" y1="118.359" x2="108.904" y2="25.096" gradientUnits="userSpaceOnUse">
<stop stop-color="#85FFE0"/>
<stop offset="0.1444" stop-color="#8CFFE2"/>
<stop offset="0.3596" stop-color="#A1FFE7"/>
<stop offset="0.619" stop-color="#C2FFEF"/>
<stop offset="0.9104" stop-color="#EFFFFB"/>
<stop offset="1" stop-color="white"/>
</linearGradient>
<linearGradient id="paint3_linear" x1="38.7041" y1="95.2966" x2="88.7746" y2="45.2262" gradientUnits="userSpaceOnUse">
<stop stop-color="#560DFF"/>
<stop offset="1" stop-color="#73ECFF"/>
</linearGradient>
<linearGradient id="paint4_linear" x1="24.4118" y1="109.589" x2="90.2083" y2="43.7925" gradientUnits="userSpaceOnUse">
<stop offset="0.0208333" stop-color="#767CFA"/>
<stop offset="1" stop-color="#6058FF"/>
</linearGradient>
</defs>
</svg>
