<svg width="25" height="25" viewBox="0 0 25 25" fill="none" xmlns="http://www.w3.org/2000/svg">
<path d="M12.4585 22.8826H3.1146C2.5415 22.8826 2.07642 22.4174 2.07642 21.8444V3.15664C2.07642 2.58354 2.54155 2.11846 3.1146 2.11846H12.4585C13.0326 2.11846 13.4967 1.65439 13.4967 1.08027C13.4967 0.506152 13.0326 0.0419922 12.4585 0.0419922H3.1146C1.39741 0.0419922 0 1.43945 0 3.15664V21.8443C0 23.5615 1.39741 24.9589 3.1146 24.9589H12.4585C13.0326 24.9589 13.4967 24.4949 13.4967 23.9207C13.4967 23.3466 13.0326 22.8826 12.4585 22.8826Z" fill="#61656C"/>
<path d="M24.6906 11.7606L18.3783 5.53131C17.9713 5.12848 17.3131 5.13371 16.9103 5.54172C16.5075 5.94972 16.5116 6.6069 16.9207 7.00973L21.4317 11.4615H9.34385C8.76973 11.4615 8.30566 11.9256 8.30566 12.4997C8.30566 13.0738 8.76973 13.538 9.34385 13.538H21.4317L16.9207 17.9898C16.5117 18.3926 16.5085 19.0498 16.9103 19.4578C17.1138 19.6633 17.3816 19.7672 17.6495 19.7672C17.9132 19.7672 18.1769 19.6675 18.3783 19.4681L24.6906 13.2389C24.8879 13.0437 25 12.7779 25 12.4997C25 12.2215 24.8889 11.9568 24.6906 11.7606Z" fill="#61656C"/>
</svg>
