<svg width="212" height="48" viewBox="0 0 212 48" fill="none" xmlns="http://www.w3.org/2000/svg">
<path d="M82.5913 25.9558H74.0379V34.8328H71.3496V14.731H83.9745V16.8966H74.0379V23.778H82.5913V25.9558Z" fill="#1B1B1B"/>
<path d="M92.659 34.8328H89.9707V14.731H92.659V34.8328Z" fill="#1B1B1B"/>
<path d="M115.815 34.8328H113.114L102.853 19.3415V34.8328H100.145V14.731H102.845L113.131 30.2911V14.731H115.807L115.815 34.8328Z" fill="#1B1B1B"/>
<path d="M135.852 34.8325H122.497V32.9947L129.552 25.2633C130.373 24.3981 131.097 23.4481 131.711 22.4297C132.099 21.7338 132.303 20.953 132.306 20.1589C132.326 19.6841 132.251 19.2101 132.085 18.7642C131.918 18.3182 131.664 17.909 131.337 17.5601C131.005 17.2221 130.604 16.9575 130.16 16.7838C129.717 16.61 129.241 16.5311 128.764 16.5522C128.214 16.519 127.664 16.5982 127.147 16.7849C126.63 16.9716 126.157 17.2617 125.76 17.637C125.389 18.0439 125.104 18.5192 124.921 19.0354C124.737 19.5517 124.66 20.0986 124.692 20.6446H122.103C122.068 19.8132 122.212 18.9841 122.525 18.2113C122.837 17.4385 123.312 16.7393 123.917 16.1595C125.123 15.018 126.74 14.4473 128.768 14.4473C130.661 14.4473 132.158 14.9371 133.258 15.9167C133.805 16.411 134.236 17.0177 134.52 17.694C134.803 18.3703 134.933 19.0998 134.9 19.831C134.9 21.8117 133.621 24.1676 131.062 26.8986L125.616 32.7478H135.852V34.8325Z" fill="#1B1B1B"/>
<path d="M153.091 25.9558H144.534V34.8328H141.846V14.731H154.471V16.8966H144.534V23.778H153.091V25.9558Z" fill="#1B1B1B"/>
<path d="M162.97 32.6632H172.632V34.8328H160.27V14.731H162.97V32.6632Z" fill="#1B1B1B"/>
<path d="M189.796 25.5389H180.964V32.6632H191.224V34.8328H178.275V14.731H191.085V16.8966H180.964V23.3732H189.796V25.5389Z" fill="#1B1B1B"/>
<path d="M203.795 22.4341L208.683 14.7431H211.843L205.408 24.6928L211.999 34.8126H208.806L203.795 26.988L198.759 34.8328H195.582L202.186 24.7131L195.734 14.731H198.882L203.795 22.4341Z" fill="#1B1B1B"/>
<path d="M41.5627 4.88581e-07L40.1007 2.52932C39.7013 3.22278 39.1263 3.79873 38.4335 4.19915C37.7408 4.59958 36.9547 4.81033 36.1546 4.81018H20.313L17.5519 9.59186H29.8139L28.3519 12.1252C27.9517 12.8177 27.3764 13.3926 26.6837 13.7922C25.991 14.1919 25.2054 14.4022 24.4058 14.402H14.7746L10.5515 21.7334C10.1513 22.4258 9.57602 23.0007 8.88335 23.4004C8.19068 23.8 7.40506 24.0103 6.6054 24.0102H0L12.5429 2.27679C12.9412 1.58445 13.5149 1.00941 14.2063 0.609665C14.8977 0.209924 15.6823 -0.000369959 16.4809 4.88581e-07H41.5627Z" fill="#24283F"/>
<path d="M31.2181 12.0479L30.4688 13.3471C29.8524 14.4099 28.968 15.2923 27.904 15.9063C26.8399 16.5202 25.6334 16.8442 24.405 16.8458H17.71L6.625 36.0458H13.2304C14.0301 36.046 14.8157 35.8357 15.5084 35.436C16.201 35.0364 16.7763 34.4615 17.1765 33.769L21.3996 26.4377H31.0308C31.8305 26.4382 32.6163 26.2281 33.309 25.8284C34.0018 25.4287 34.577 24.8536 34.9769 24.1609L36.4389 21.6275H24.1769L26.938 16.8458H42.7796C43.5797 16.846 44.3658 16.6352 45.0585 16.2348C45.7513 15.8344 46.3263 15.2584 46.7257 14.565L48.1877 12.0356L31.2181 12.0479Z" fill="#24283F"/>
<path d="M37.9012 24.002L37.0868 25.3949C36.5605 26.3029 35.8372 27.0812 34.9704 27.6726C34.1035 28.264 33.115 28.6534 32.0777 28.8121H43.3949L40.646 33.5938H24.7882C23.9943 33.5919 23.2138 33.7985 22.5248 34.1931C21.8358 34.5877 21.2626 35.1563 20.8624 35.8421L13.8457 47.9999H38.9519C39.7463 48 40.5267 47.7907 41.2144 47.3932C41.9022 46.9956 42.4731 46.4238 42.8695 45.7353L44.3397 43.1897H25.8674L28.6284 38.404H44.4863C45.2813 38.4048 46.0625 38.1959 46.7511 37.7983C47.4396 37.4007 48.0112 36.8285 48.408 36.1394L55.4165 24.002H37.9012Z" fill="#24283F"/>
</svg>
