<svg width="368" height="115" viewBox="0 0 368 115" fill="none" xmlns="http://www.w3.org/2000/svg">
<path fill-rule="evenodd" clip-rule="evenodd" d="M353.798 0.164704C344.72 0.32962 343.416 0.424003 341.187 1.07729C331.439 3.93527 323.394 11.596 315.179 25.8433C306.824 40.3337 302.665 45.6215 297.607 48.1839C295.42 49.2923 295.186 49.3373 291.575 49.3457C289.177 49.3514 287.287 49.1798 286.349 48.8701C281.465 47.2599 276.625 41.9896 270.603 31.7211C263.914 20.315 260.648 15.4761 256.867 11.3689C252.141 6.23503 247.527 3.15436 241.755 1.27915C238.977 0.376307 238.517 0.327271 232.945 0.342386C227.503 0.356829 226.85 0.425682 224.175 1.26907C216.841 3.58092 210.617 8.52068 204.736 16.6983C202.123 20.3312 201.265 21.6807 196.998 28.8662C189.858 40.8879 187.01 44.5735 182.807 47.2317C180.671 48.5822 179.419 49.0437 176.678 49.4898C174.328 49.8723 170.751 49.3695 168.598 48.3538C165.138 46.7215 161.584 43.1202 157.716 37.329C155.699 34.3081 152.173 28.4809 151.196 26.5543C150.327 24.8393 144.569 16.1616 143.035 14.2555C141.084 11.8308 137.275 8.02963 135.077 6.31329C131.876 3.81436 128.371 2.13429 123.523 0.774659C121.332 0.160002 112.079 0.155637 109.641 0.767607C98.4097 3.58831 91.2574 10.629 79.9034 30.0417C71.8045 43.8883 67.2692 48.4173 60.4508 49.4659C58.7716 49.7242 57.613 49.7037 55.91 49.385C49.3662 48.16 45.4724 44.3596 37.952 31.8575C29.8741 18.4291 27.9587 15.5812 24.3439 11.6272C19.8939 6.75968 14.6877 3.14596 9.95085 1.63652C8.3399 1.1233 7.84439 1.09845 6.30008 1.45381C1.72135 2.50779 -0.965853 7.05458 0.32271 11.5684C1.11087 14.33 2.37755 15.6635 5.89505 17.4349C7.76796 18.3777 9.70718 19.6836 10.9448 20.8353C13.4435 23.1609 17.0316 28.0272 20.1842 33.3673C29.5478 49.2264 33.8081 54.9478 39.5783 59.412C43.1174 62.15 46.3481 63.7639 50.8233 65.0295C54.0723 65.9481 61.9219 66.0257 65.3186 65.1723C71.4622 63.6289 75.762 61.1165 80.8535 56.0945C84.9998 52.0042 88.5709 46.9173 95.2512 35.5837C99.6813 28.0678 102.043 24.7063 105.065 21.6169C108.563 18.0405 112.365 16.2684 116.5 16.2865C123.629 16.3184 128.841 20.6284 135.935 32.3596C146.17 49.2856 149.27 53.6207 154.118 57.7897C161.032 63.7357 166.58 65.842 175.173 65.7839C180.625 65.747 183.402 65.1001 188.196 62.7499C195.876 58.9854 201.917 52.1607 210.31 37.7669C215.645 28.6176 218.076 25.0973 221.479 21.5978C227.961 14.9323 236.434 14.4839 243.219 20.4471C246.657 23.4696 249.544 27.4676 254.998 36.7593C260.845 46.7198 263.522 50.5619 267.712 55.0083C272.971 60.5895 277.545 63.4035 284.226 65.1682C287.626 66.0667 295.028 65.9895 298.761 65.0171C302.517 64.0383 307.5 61.4356 310.769 58.7439C315.388 54.9411 320.68 48.1056 325.708 39.4473C334.596 24.1434 339.382 18.6434 345.469 16.739C345.919 16.5986 351.063 16.398 356.902 16.2932L367.517 16.1028L367.605 8.61137C367.656 4.31851 367.561 0.876431 367.383 0.550293C367.023 -0.111387 367.79 -0.089556 353.798 0.164704ZM345.143 26.3424C344.334 26.8926 343.265 27.8364 342.767 28.4403C340.308 31.4215 334.691 40.1648 334.691 41.0122C334.691 41.3907 337.461 41.4532 351.104 41.3807L367.517 41.2937L367.605 33.7787C367.667 28.5179 367.581 26.1251 367.32 25.8016C367.018 25.4275 365.013 25.3398 356.78 25.3408L346.613 25.3425L345.143 26.3424ZM229.115 34.9049C225.118 36.0365 221.511 39.6139 220.194 43.753C219.318 46.5085 219.635 51.1127 220.88 53.7C222.181 56.4042 224.32 58.5702 227.06 59.9578C228.968 60.9237 229.764 61.1293 231.977 61.2264C235.19 61.3671 237.304 60.787 239.809 59.0771C242.9 56.9671 244.729 54.0594 245.556 49.9425C245.9 48.2282 245.9 47.4584 245.556 45.7451C244.718 41.5741 242.666 38.4135 239.544 36.4852C236.346 34.5099 232.545 33.9339 229.115 34.9049ZM329.587 49.8764C329.204 50.0225 328.554 50.6452 328.141 51.2598C325.421 55.3109 323.329 57.9015 319.943 61.4084C317.824 63.6044 316.168 65.5317 316.264 65.6909C316.552 66.1712 366.82 66.0597 367.288 65.5777C367.886 64.9627 367.841 50.4134 367.239 49.8999C366.722 49.4585 330.737 49.436 329.587 49.8764Z" fill="#1A2D2C"/>
<path d="M46.0081 115V99.376H54.1981L58.9861 108.154L63.8581 99.376H71.7121V115H65.8111V105.256L60.3301 115H57.2851L51.8251 105.256V115H46.0081Z" fill="#1A2D2C"/>
<path d="M85.2846 99.376H102.568V103.198H91.1646V105.151H102.337V108.952H91.1646V111.094H102.736V115H85.2846V99.376Z" fill="#1A2D2C"/>
<path d="M122.124 115V103.639H115.383V99.376H134.829V103.639H128.088V115H122.124Z" fill="#1A2D2C"/>
<path d="M157.66 108.574L155.035 103.198L152.473 108.574H157.66ZM160.789 115L159.571 112.48H150.646L149.449 115H143.401L151.129 99.376H159.151L167.32 115H160.789Z" fill="#1A2D2C"/>
<path d="M209.575 115H202.309L196.219 99.376H202.855L206.404 109.687L209.533 99.376H216.253L219.424 109.519L222.868 99.376H228.979L222.889 115H215.98L212.725 105.13L209.575 115Z" fill="#1A2D2C"/>
<path d="M251.516 108.574L248.891 103.198L246.329 108.574H251.516ZM254.645 115L253.427 112.48H244.502L243.305 115H237.257L244.985 99.376H253.007L261.176 115H254.645Z" fill="#1A2D2C"/>
<path d="M284.699 115H276.782L268.886 99.376H275.648L280.898 110.275L285.833 99.376H292.028L284.699 115Z" fill="#1A2D2C"/>
<path d="M304.316 99.376H321.599V103.198H310.196V105.151H321.368V108.952H310.196V111.094H321.767V115H304.316V99.376Z" fill="#1A2D2C"/>
</svg>
