<?xml version="1.0" standalone="no"?>
<!DOCTYPE svg PUBLIC "-//W3C//DTD SVG 20010904//EN"
 "http://www.w3.org/TR/2001/REC-SVG-20010904/DTD/svg10.dtd">
<svg version="1.0" xmlns="http://www.w3.org/2000/svg"
 width="1072.000000pt" height="1072.000000pt" viewBox="0 0 1072.000000 1072.000000"
 preserveAspectRatio="xMidYMid meet">
<metadata>
Created by potrace 1.14, written by Peter Selinger 2001-2017
</metadata>
<g transform="translate(0.000000,1072.000000) scale(0.100000,-0.100000)"
fill="#000000" stroke="none">
<path d="M3010 9989 c-25 -6 -54 -12 -65 -14 -11 -2 -44 -11 -74 -20 -163 -51
-333 -168 -439 -302 -33 -43 -132 -201 -132 -212 0 -4 -13 -28 -29 -53 -16
-25 -27 -48 -25 -51 2 -2 -2 -10 -11 -17 -8 -7 -15 -19 -15 -26 0 -8 -4 -14
-9 -14 -5 0 -11 -8 -14 -17 -3 -10 -20 -43 -37 -73 -18 -30 -39 -68 -49 -85
-9 -16 -18 -32 -21 -35 -4 -4 -18 -29 -64 -115 -6 -11 -13 -22 -16 -25 -3 -3
-12 -18 -20 -35 -8 -16 -17 -32 -20 -35 -3 -3 -17 -26 -30 -52 -14 -27 -28
-48 -31 -48 -3 0 -6 -6 -6 -12 0 -7 -19 -43 -42 -80 -22 -37 -41 -72 -41 -78
0 -5 -4 -10 -9 -10 -5 0 -14 -12 -20 -27 -5 -16 -24 -50 -40 -78 -17 -27 -44
-75 -61 -105 -16 -30 -46 -82 -66 -115 -19 -33 -38 -68 -41 -77 -3 -10 -9 -18
-14 -18 -5 0 -9 -9 -9 -19 0 -11 -4 -21 -8 -23 -5 -1 -28 -39 -52 -83 -24 -44
-46 -82 -49 -85 -3 -3 -15 -23 -26 -45 -22 -44 -189 -342 -205 -365 -6 -8 -14
-24 -19 -35 -5 -11 -22 -43 -38 -70 -16 -28 -47 -81 -68 -120 -21 -38 -78
-140 -126 -226 -49 -86 -89 -161 -89 -167 0 -6 -4 -12 -8 -14 -4 -1 -36 -55
-71 -118 -35 -63 -84 -151 -109 -195 -77 -138 -93 -168 -130 -235 -19 -36 -55
-100 -79 -142 -23 -43 -43 -82 -43 -88 0 -5 -4 -10 -10 -10 -5 0 -10 -8 -10
-17 0 -9 -6 -24 -14 -32 -11 -14 -48 -80 -118 -211 -28 -52 -82 -149 -108
-195 -12 -22 -38 -69 -57 -105 -18 -36 -54 -102 -79 -148 l-45 -82 683 0 c533
1 696 4 741 14 32 7 59 13 60 13 1 0 31 10 67 22 229 78 408 246 541 506 11
22 29 54 40 70 10 17 22 36 25 43 8 15 169 298 184 322 31 51 110 195 110 202
0 4 4 8 9 8 5 0 14 12 20 28 10 26 31 62 41 72 3 3 14 24 25 47 11 24 23 43
28 43 4 0 7 4 7 10 0 5 20 44 45 86 25 41 45 77 45 79 0 3 65 114 90 155 5 8
23 40 41 70 l31 55 406 0 c224 0 409 -4 411 -8 3 -8 -27 -76 -39 -87 -10 -10
-90 -153 -90 -161 0 -5 -5 -9 -12 -9 -6 0 -9 -3 -5 -6 3 -3 -10 -30 -29 -59
-19 -30 -34 -56 -34 -58 0 -3 -18 -35 -40 -71 -22 -36 -40 -70 -40 -76 0 -5
-4 -10 -8 -10 -4 0 -15 -15 -23 -32 -8 -18 -56 -104 -107 -191 -51 -88 -92
-161 -92 -163 0 -2 -15 -27 -33 -56 -19 -29 -51 -84 -72 -123 -21 -38 -46 -82
-56 -97 -11 -14 -19 -28 -19 -31 0 -3 -24 -45 -52 -94 -29 -48 -53 -90 -53
-93 -1 -3 -12 -23 -26 -45 -13 -22 -22 -42 -21 -44 2 -2 -1 -7 -6 -10 -11 -7
-58 -84 -75 -123 -6 -16 -15 -28 -19 -28 -4 0 -8 -6 -8 -14 0 -7 -9 -25 -20
-38 -10 -14 -16 -28 -13 -32 3 -3 1 -6 -5 -6 -7 0 -12 -4 -12 -9 0 -5 -36 -70
-80 -146 -44 -76 -80 -141 -80 -146 0 -5 -5 -9 -11 -9 -5 0 -7 -4 -4 -10 3 -5
1 -10 -4 -10 -6 0 -11 -6 -11 -14 0 -8 -3 -16 -7 -18 -5 -1 -17 -21 -28 -43
-11 -22 -44 -79 -73 -128 -29 -48 -57 -98 -63 -110 -5 -12 -25 -47 -44 -77
-19 -30 -42 -68 -50 -85 -8 -16 -19 -37 -25 -45 -8 -12 -70 -121 -118 -205 -6
-11 -31 -54 -55 -95 -24 -41 -55 -95 -69 -120 -26 -46 -74 -130 -213 -370 -43
-74 -88 -153 -99 -175 -12 -22 -24 -42 -27 -45 -3 -3 -23 -36 -44 -75 -21 -38
-42 -72 -46 -73 -5 -2 -9 -11 -9 -21 0 -9 -9 -27 -20 -39 -11 -12 -20 -28 -20
-37 0 -8 -4 -15 -10 -15 -5 0 -10 -5 -10 -10 0 -6 -11 -27 -24 -48 -39 -61
-80 -137 -77 -141 1 -2 -1 -7 -6 -10 -5 -3 -16 -18 -26 -33 -16 -25 -16 -27 1
-31 24 -7 1362 -1 1388 6 11 3 51 13 90 23 38 9 76 20 84 25 8 4 42 20 74 35
110 51 234 156 313 264 34 46 115 181 216 360 24 43 86 150 121 210 15 25 32
57 39 73 6 15 15 27 19 27 4 0 8 6 8 14 0 7 7 19 15 26 8 7 13 16 10 20 -3 5
-1 11 4 14 5 3 38 57 73 118 34 62 68 120 73 130 6 9 21 37 34 62 14 25 28 46
33 46 4 0 8 5 8 12 0 6 26 57 59 112 32 56 69 119 81 141 12 22 33 59 47 83
l25 42 79 0 c102 0 530 0 704 0 l135 0 -16 -25 c-9 -14 -13 -25 -9 -25 5 0 1
-8 -8 -18 -9 -10 -48 -80 -88 -157 -40 -77 -75 -142 -80 -145 -4 -3 -11 -18
-14 -33 -4 -15 -11 -27 -16 -27 -5 0 -9 -4 -9 -10 0 -7 597 -10 1770 -10
l1769 0 -37 -60 c-20 -34 -41 -69 -47 -78 -17 -29 -156 -255 -180 -292 -25
-39 -174 -280 -190 -308 -51 -86 -72 -119 -85 -134 -13 -14 -39 -16 -225 -13
-823 13 -1367 18 -2085 19 -737 1 -833 -1 -900 -16 -41 -9 -88 -22 -105 -29
-16 -7 -37 -13 -45 -15 -15 -3 -62 -26 -70 -34 -3 -3 -22 -13 -43 -23 -58 -27
-145 -94 -214 -164 -60 -62 -153 -191 -153 -213 0 -5 -4 -10 -10 -10 -5 0 -10
-5 -10 -10 0 -14 -91 -173 -104 -182 -6 -4 -7 -8 -3 -8 5 0 0 -12 -10 -28 -36
-54 -43 -67 -54 -94 -6 -16 -15 -28 -20 -28 -5 0 -9 -9 -9 -20 0 -11 -3 -20
-7 -20 -5 0 -13 -10 -19 -23 -23 -49 -60 -112 -69 -119 -5 -4 -6 -8 -1 -8 5 0
3 -8 -5 -17 -8 -10 -19 -27 -25 -38 -6 -11 -30 -56 -54 -100 -23 -44 -47 -85
-52 -92 -11 -14 -56 -97 -90 -165 -12 -27 -26 -48 -30 -48 -5 0 -8 -5 -8 -10
0 -6 -20 -45 -43 -88 -44 -76 -112 -201 -145 -264 -9 -18 -19 -35 -22 -38 -3
-3 -13 -21 -23 -40 -43 -80 -112 -208 -135 -250 -14 -25 -39 -70 -55 -100 -16
-30 -38 -70 -49 -87 -11 -18 -17 -33 -13 -33 3 0 -6 -15 -20 -34 -15 -19 -26
-38 -26 -43 0 -4 -27 -57 -60 -116 -32 -59 -59 -110 -59 -112 0 -2 -13 -26
-29 -53 l-29 -49 2467 2 c2626 1 2461 -2 2616 39 43 12 215 97 215 107 0 4 9
10 19 14 31 9 163 144 207 210 36 53 75 118 142 235 11 19 36 64 56 98 20 35
36 68 36 73 0 5 4 9 9 9 5 0 13 10 17 23 4 12 9 24 13 27 9 8 41 67 41 77 0 9
-86 11 -608 18 -139 1 -255 5 -258 8 -3 3 -18 1 -34 -3 -16 -4 -31 -6 -33 -3
-3 2 -158 7 -344 9 -548 8 -639 10 -650 17 -7 4 -14 4 -16 0 -3 -5 -31 -7 -64
-6 -32 1 -211 5 -398 8 -187 3 -434 7 -550 10 -115 2 -285 4 -377 6 l-168 2
19 31 c20 33 111 192 153 266 14 25 48 84 77 132 28 48 51 90 51 93 0 4 13 26
29 50 16 24 32 53 36 64 3 12 11 21 16 21 5 0 9 4 9 9 0 5 23 48 50 96 28 48
50 90 50 93 0 4 699 8 1553 8 853 0 1577 4 1607 7 54 7 95 14 95 17 0 1 7 3
15 5 79 17 244 97 307 149 44 37 108 100 143 141 33 40 100 143 100 155 0 6 5
10 10 10 6 0 10 9 10 19 0 11 4 21 8 23 4 1 19 23 33 48 14 25 35 61 46 80 31
54 132 231 212 370 39 69 75 132 80 140 15 25 244 424 255 445 6 11 13 22 16
25 3 3 10 14 16 25 6 11 43 76 82 144 40 68 72 126 72 129 0 3 12 21 27 40 15
20 20 32 12 28 -11 -6 -11 -5 1 6 16 14 26 31 66 107 13 24 28 49 33 55 5 6
21 34 36 61 14 28 36 66 47 85 11 19 31 53 43 75 13 22 66 114 118 205 53 91
94 166 93 167 -7 7 -633 28 -1116 38 -157 3 -359 8 -450 11 -91 3 -641 7
-1223 9 -582 2 -1061 6 -1065 10 -4 3 0 10 8 15 8 6 12 10 8 10 -4 0 3 16 17
35 13 20 30 49 37 65 7 17 16 30 20 30 5 0 8 4 8 9 0 5 23 48 50 96 28 48 50
90 50 95 0 5 5 10 12 12 59 20 -105 23 -1159 23 -637 -1 -1161 1 -1166 3 -6 3
39 99 54 112 3 3 20 32 39 65 18 33 42 76 53 95 44 79 71 125 77 130 3 3 11
16 17 30 7 14 26 48 43 75 17 28 36 61 43 75 6 14 26 48 43 75 17 28 34 57 37
65 4 8 18 33 32 55 14 22 36 61 50 88 15 27 32 47 43 48 9 0 717 2 1572 3 855
2 1564 6 1575 8 11 3 38 9 60 13 22 5 42 9 45 10 3 1 19 5 35 10 78 22 238
110 298 164 58 54 147 152 147 163 0 4 6 13 13 20 12 12 29 39 86 141 9 16 21
36 26 45 41 69 195 340 195 344 0 3 -851 5 -1890 4 -1040 0 -1890 3 -1890 7 0
6 50 96 105 189 6 9 17 29 26 45 9 15 28 51 44 78 16 28 33 59 39 70 6 11 13
22 16 25 10 10 30 50 30 61 0 8 -4 8 -15 -1 -8 -7 -15 -9 -15 -4 0 5 -30 9
-68 9 -37 -1 -79 2 -94 6 -17 5 -28 4 -28 -2 0 -6 -5 -7 -11 -4 -12 8 -116 16
-246 18 -51 1 -93 4 -93 7 0 3 -44 6 -98 7 -91 1 -177 5 -412 19 -96 5 -136 7
-360 18 -69 4 -159 9 -200 11 -41 3 -127 7 -190 10 -63 3 -164 8 -225 11 -60
4 -135 7 -167 8 -31 0 -55 3 -54 6 11 20 132 230 145 250 8 14 16 27 16 30 0
3 27 50 59 105 104 176 152 260 159 275 4 8 18 33 32 55 14 22 30 50 36 62
l12 21 1546 1 c850 0 1566 3 1591 6 79 8 197 43 277 81 43 21 80 41 81 46 2 4
10 8 18 8 8 0 17 7 20 15 4 8 11 15 18 15 21 0 196 177 196 199 0 5 4 11 8 13
10 4 122 196 122 209 0 5 4 9 9 9 5 0 11 8 14 18 4 9 18 37 33 62 15 25 35 59
44 75 10 17 34 58 55 93 20 35 34 66 31 70 -7 6 -91 9 -464 16 -117 2 -215 6
-219 9 -3 4 -13 2 -23 -3 -10 -5 -20 -6 -24 -3 -10 10 -95 9 -89 -1 4 -5 0 -6
-7 -1 -8 5 -79 10 -159 11 -80 1 -333 5 -561 9 -228 4 -512 9 -630 11 -478 10
-2726 12 -2770 3z"/>
</g>
</svg>
