<svg width="40" height="40" viewBox="0 0 40 40" fill="none" xmlns="http://www.w3.org/2000/svg">
<circle cx="20" cy="20" r="19.5" stroke="#A8D7FF"/>
<path d="M20 5C12.0168 5.04174 5.04166 12.0168 5 20C5.04166 27.9832 12.0168 34.9583 20 35C27.9832 34.9583 34.9583 27.9832 35 20C34.9583 12.0169 27.9832 5.04174 20 5ZM20 8.44388C25.6734 8.45306 30.5476 12.8432 31.424 18.3024C23.808 18.27 16.192 18.27 8.57596 18.3024C9.45244 12.8433 14.3266 8.45314 20 8.44388ZM20 31.5561C14.3266 31.5469 9.45244 27.1568 8.57596 21.6976C16.192 21.73 23.808 21.73 31.424 21.6976C30.5476 27.1567 25.6734 31.5469 20 31.5561Z" fill="url(#paint0_linear)"/>
<defs>
<linearGradient id="paint0_linear" x1="-1.5234" y1="41.5234" x2="32.7207" y2="7.27934" gradientUnits="userSpaceOnUse">
<stop stop-color="#85B6FF"/>
<stop offset="0.1444" stop-color="#8CD6FF"/>
<stop offset="0.3596" stop-color="#A1D2FF"/>
<stop offset="0.619" stop-color="#C2E9FF"/>
<stop offset="0.9104" stop-color="#EFF6FF"/>
<stop offset="1" stop-color="white"/>
</linearGradient>
</defs>
</svg>
