<svg width="40" height="40" viewBox="0 0 40 40" fill="none" xmlns="http://www.w3.org/2000/svg">
<circle cx="20" cy="20" r="19.5" stroke="#E39FC9"/>
<path d="M29.9063 9.00237C27.5975 8.92997 25.6951 10.53 25.2202 12.706C21.74 12.6673 18.2599 12.6673 14.7798 12.706C14.3049 10.5299 12.4025 8.92989 10.0937 9.00237C7.41769 9.08962 5.10443 11.3451 5.00318 13.9806C4.90446 16.6169 7.11516 18.7412 9.86481 18.7263C10.3766 18.7222 10.8711 18.6426 11.3373 18.4984C13.0687 21.4667 14.8478 24.4682 16.6178 27.4762C15.6417 28.37 15.0393 29.6436 15.0561 31.0612C15.0948 33.7612 17.3232 35.9989 19.9996 36C22.6761 35.9989 24.9045 33.7612 24.9432 31.0612C24.96 29.6437 24.3575 28.3701 23.3815 27.4762C25.1515 24.4682 26.9307 21.4666 28.6621 18.4983C29.1285 18.6426 29.6233 18.7222 30.1352 18.7263C32.8848 18.7412 35.0955 16.617 34.9968 13.9806C34.8956 11.3451 32.5822 9.08955 29.9063 9.00237ZM19.9996 26.1683C19.4879 26.1682 18.9941 26.2448 18.5294 26.386C18.0593 25.5845 17.5884 24.783 17.1178 23.9821C19.039 23.984 20.9603 23.984 22.8814 23.9821C22.4108 24.783 21.9399 25.5845 21.4698 26.386C21.0051 26.2446 20.5113 26.1683 19.9996 26.1683ZM24.1634 21.7998C21.3876 21.7982 18.6117 21.7982 15.8359 21.7998C14.9714 20.3272 14.1114 18.8581 13.2622 17.3958C13.9891 16.7327 14.518 15.8628 14.7533 14.8843C18.2511 14.8543 21.7489 14.8543 25.2467 14.8843C25.4819 15.8626 26.0107 16.7324 26.7374 17.3953C25.8881 18.8579 25.0278 20.3271 24.1634 21.7998Z" fill="url(#paint0_linear)"/>
<defs>
<linearGradient id="paint0_linear" x1="3.69428" y1="33.6915" x2="33.2244" y2="3.69737" gradientUnits="userSpaceOnUse">
<stop stop-color="#DA7EB6"/>
<stop offset="1" stop-color="#FFDEF2"/>
</linearGradient>
</defs>
</svg>
