<svg width="49" height="49" viewBox="0 0 49 49" fill="none" xmlns="http://www.w3.org/2000/svg">
<circle cx="24.5" cy="24.5" r="24.5" fill="#787692"/>
<path d="M35.0084 28.8524C33.3898 27.2338 31.4633 26.0356 29.3613 25.3103C31.6126 23.7597 33.0916 21.1648 33.0916 18.2305C33.0916 13.4932 29.2375 9.63916 24.5003 9.63916C19.7631 9.63916 15.909 13.4932 15.909 18.2305C15.909 21.1648 17.388 23.7597 19.6394 25.3103C17.5374 26.0356 15.6108 27.2338 13.9923 28.8524C11.1854 31.6592 9.63965 35.3911 9.63965 39.3605H11.9616C11.9616 32.4466 17.5864 26.8218 24.5003 26.8218C31.4142 26.8218 37.039 32.4466 37.039 39.3605H39.361C39.361 35.3911 37.8152 31.6592 35.0084 28.8524ZM24.5003 24.4998C21.0434 24.4998 18.231 21.6874 18.231 18.2305C18.231 14.7735 21.0434 11.9611 24.5003 11.9611C27.9572 11.9611 30.7696 14.7735 30.7696 18.2305C30.7696 21.6874 27.9572 24.4998 24.5003 24.4998Z" fill="#D8E1F7"/>
</svg>
