<svg width="61" height="61" viewBox="0 0 61 61" fill="none" xmlns="http://www.w3.org/2000/svg">
<circle cx="30.5" cy="30.5" r="30.5" fill="#DDE7FF"/>
<path d="M43.5815 35.9185C41.5665 33.9036 39.1682 32.4119 36.5515 31.509C39.3541 29.5787 41.1953 26.3482 41.1953 22.6953C41.1953 16.7979 36.3974 12 30.5 12C24.6026 12 19.8047 16.7979 19.8047 22.6953C19.8047 26.3482 21.6459 29.5787 24.4486 31.509C21.8319 32.4119 19.4335 33.9036 17.4185 35.9185C13.9244 39.4127 12 44.0585 12 49H14.8906C14.8906 40.3929 21.8929 33.3906 30.5 33.3906C39.1071 33.3906 46.1094 40.3929 46.1094 49H49C49 44.0585 47.0756 39.4127 43.5815 35.9185ZM30.5 30.5C26.1965 30.5 22.6953 26.9989 22.6953 22.6953C22.6953 18.3918 26.1965 14.8906 30.5 14.8906C34.8035 14.8906 38.3047 18.3918 38.3047 22.6953C38.3047 26.9989 34.8035 30.5 30.5 30.5Z" fill="#6E7D9C"/>
</svg>
